<svg xmlns="http://www.w3.org/2000/svg" viewBox="0 0 47.4 47.4"><defs><style>.cls-1{fill:#7b542e;}.cls-2{fill:#5c0115;}.cls-3{fill:#debb8c;}</style></defs><g id="Layer_2" data-name="Layer 2"><g id="CTT"><path class="cls-1" d="M47.4,23.11v1.18c-.33.32-.87.59-.95,1-.29,1.24-1.27,2-1.89,3-.45.71-1,1.36-1.4,2.09a12.33,12.33,0,0,0-1.33,6l-.29.47c.06-1,0-1.87.16-2.72.15-1,.4-2,.61-3.08l.12-.23.46-1h0l.13-.35,3.11-4.06-1.58-.58-.23-.57.17-.25.61.32c.26.14.41,0,.52-.2l.66,0c0-.16,0-.42-.06-.46a1.62,1.62,0,0,0-.59-.08l-.59.1h0l-.54.14-.16-.52a4.15,4.15,0,0,1-.22-.65A6.11,6.11,0,0,0,43,20a33.11,33.11,0,0,1-2.18-3.35,9.17,9.17,0,0,1-.6-4.44c0-.23,0-.45,0-.84l-.56.51c-.89.89-1.78,1.78-2.68,2.66a2,2,0,0,1-.48.33s-.13-.12-.2-.19v0l.12-.12h0l.12-.12h0l.24-.24h0l.13-.12h0l.38-.22.11-.12.25-.23.05-.08-.09.05-.23.25-.11.11-.36.14-.71-1.07s0-.08,0-.12l.24-.24.13-.11.11-.12.12-.12.12-.12L37,12l.12-.12.12-.12.11-.12.13-.12.11-.11.12-.12.12-.12.12-.12.12-.12.12-.12.12-.11.12-.12.12-.12.12-.12.06-.06-.11,0-.12.12-.11.12-.12.12-.11.12-.12.12-.13.12-.11.12-.12.11-.12.12-.12.12-.11.12-.12.12-.13.12-.11.11-.11.13-.12.12-.13.11-.12.12-.1.13-.25.23-.09.14h0l-.12.12h0l-.24.24h0l-.35.24L34,15c-.65.68-.65.68-.2,1.44,0,0,0,0,0,.05a1,1,0,0,0,.08.41,11.33,11.33,0,0,1,2,4.92A11.91,11.91,0,0,1,35.76,26a10.17,10.17,0,0,1-1.13,3.37,5.13,5.13,0,0,0-.38,1.3c-.31.32-.63.62-.91,1-.05.06,0,.28.08.35.77.77,1.57,1.52,2.36,2.28.66-1.06.81-1.31-.37-2.24a5,5,0,0,1-.71-1c.11,0,.24.05.31.12l3.88,3.63c.35.32.72.63,1.08.95l.2-.06V34.08A8.82,8.82,0,0,1,42,28.55c.9-1.21,2.08-2.27,2.11-4.12l.31.68,0,.26c-.38.13-.33.45-.31.75-.19.35-.35.72-.56,1.06-.48.74-1,1.47-1.46,2.21l0,0s0,0,0,0l.05-.07c.3.06.61.12.59.54l-.24.77-.11.23a9.2,9.2,0,0,0-.92,3.92,17.08,17.08,0,0,0,1,6c0,.06.13.09.36.23-.14-.39-.25-.61-.31-.85-.12-.49-.21-1-.31-1.49.07.06.17.1.2.18.4,1,.8,2,1.19,2.93a5.84,5.84,0,0,1,.2.59c-1.28-1.08-2.45-2.22-3.62-3.35l-3.68-3.53c0-.08,0-.17-.07-.22q-1.5-1.55-3-3.06a2.46,2.46,0,0,0-.49-.31l-.61.87,1.83,2h-.35c-.44-.46-.9-.91-1.31-1.4s-.7-.38-1.05,0a4.06,4.06,0,0,0-.36.46c-.27.12-.53.25-.8.36a18.32,18.32,0,0,1-3.44,1.38,18.34,18.34,0,0,1-4.5.24A13,13,0,0,1,18.82,35a19.2,19.2,0,0,1-2.37-1.25c-.5-.76-.87-.76-1.57,0h-.31l.82-1.06-.93-.84c-.07-.08-.15-.15-.22-.22a.08.08,0,0,1,0-.09l-.12-.16h0l-.18-.22c-.42-.56-.41-.55-.93,0-.31.3-.64.57-1,.85h-.42c.37-.38.7-.8,1.1-1.14a.94.94,0,0,0,.2-1.35,10.66,10.66,0,0,1-1.4-5.56,12.2,12.2,0,0,1,.62-4.32,12.58,12.58,0,0,1,.91-2,.72.72,0,0,0,.1-.8c.7,0,.74-.65,1-1.1l.31.06.09-.14-1.13-.85h0l-.12-.12h0l-.12-.12h0L13,14.46h0l-.12-.12h0l-.12-.11h0V14l1.88,1.49c.19-.37.85-.49.6-1.13h.35a1,1,0,0,0,.62-1c.27.09.48.27.84,0a11.75,11.75,0,0,1,9.59-1.57A31.31,31.31,0,0,1,29.76,13a13.65,13.65,0,0,1,1.31.69c.38.73.69.79,1.23.24.26-.26.54-.49.82-.74h.3l-1.37,1.58a2.73,2.73,0,0,0,.56.5.6.6,0,0,0,.57,0c1.12-1.1,2.21-2.23,3.31-3.35l7-6.87.2.16-.27.57L42.2,8.31c0-.24,0-.48,0-.72s.17-.47.25-.7l.21-.42-.24,0v.44l-.24.71a10,10,0,0,0-.77,4,12,12,0,0,0,.23,3,7.14,7.14,0,0,0,1.25,3.12l.24.36.06.16.07,0L43.14,18l-.23-.36c-.23-.53-.51-1.06-.69-1.61a13.77,13.77,0,0,1-.5-6.15c0-.15.22-.27.33-.41,0,.14,0,.28,0,.41a11.67,11.67,0,0,0,.36,5.35,10.79,10.79,0,0,0,2.15,3.91C45.58,20.39,46.27,21.91,47.4,23.11ZM40.5,39l.09,0L40.54,39l-.12-.12-.12-.12-.12-.11-.12-.12L40,38.38l-.12-.12-.12-.12L39.59,38l-.12-.12-.12-.11-.12-.12-.12-.12L39,37.43l-.11-.11-.13-.12-.11-.12L38.52,37l-.12-.11-.12-.12L38,36.49l-.12-.12-.12-.12-.71-.71-.24-.23-.57-.49-.23-.24-.15-.19-.14.13.24.1.24.23.6.47.23.25.72.7.11.12.12.12.24.23.11.13.12.12.12.11.12.12.11.13.12.12.12.11.12.12.11.12.12.12.12.12.12.12.12.12.12.12.12.11.12.12.11.12.12.12ZM14.69,16.35l-.06,0,.06,0,.12-.12.12-.23c.68-.13,1-.68,1.3-1.19l.05,0a.08.08,0,0,1,0,0l-.06.06L14.93,16l-.12.23Zm2.84,17.3.06.05-.05-.05-.12-.12-.05,0,.05,0Zm-.71-.47.06,0-.05,0-.06-.06ZM33.19,16.93l-.06-.05,0,.07.12.12.12.12a2.56,2.56,0,0,0,.11.24l.13.23.16.29.16-.16-.31-.15-.12-.23-.12-.23-.11-.13Zm-2,15.79.05-.08-.08,0,0,.08Zm.46-.36.12-.12.12-.12.36-.36,0-.07-.06,0-.35.36-.13.12-.12.11-.05.07Zm1-1.07,0-.07-.07.05,0,.07ZM29.51,13.62l-.12-.11-.24-.12-.17,0,.17,0,.23.12.12.12.23.13.36.22.24.13.06.05-.05-.07L30.1,14l-.35-.24Zm-11.38,0h0l.31-.13h0l1.16.58a6,6,0,0,1-.55.48,15,15,0,0,0-2.77,2.26,8,8,0,0,0-1.86,2.89c-.28.82-.53,1.64-.79,2.47l-.1.57c.06.75.1,1.51.17,2.27a8.75,8.75,0,0,0,1.81,4.56A15.25,15.25,0,0,0,18,32a6.61,6.61,0,0,0,3.13,1.43,5.25,5.25,0,0,0,1.12.37c.64.07,1.29,0,1.94,0,.73-.15,1.46-.33,2.2-.44A7.34,7.34,0,0,0,29.63,32a10.34,10.34,0,0,0,3.18-3.67,6.94,6.94,0,0,0,.65-1.63c.18-.77.17-1.59.34-2.37a6.62,6.62,0,0,0-.28-3.59,10,10,0,0,0-2.31-3.91,15.15,15.15,0,0,0-1.81-1.59A9.65,9.65,0,0,0,26,13.81a8.52,8.52,0,0,0-3.12-.55c-.14,0-.4-.06-.43-.15a.53.53,0,0,1,.12-.48,1,1,0,0,1,.59-.29c.49,0,1,0,1.47,0a12.84,12.84,0,0,0-2.63,0c-.66.06-1.31.22-2,.33l-1.18.48h0l-.37.12h0l-.95.59-.13.08.13-.08.4-.11ZM34.36,28.56l-.12.23-.23.48,0,.05,0-.05.24-.48.11-.23.12-.24.74-1.78L35,26.47l-.55,1.85Zm-.59,1.06,0,.16,0-.16,0-.05ZM13.87,30l-.07,0,.06.06.12.24.12.12.11.24.06.05,0-.06-.13-.24L14,30.21ZM34.36,19l.11.24.12.35.81,3.28a4.55,4.55,0,0,0-.11-1.33c-.18-.66-.45-1.31-.68-2l-.12-.36L34.37,19l0-.17-.07,0ZM13.28,29l-.12-.23-.43-1.36-.21.08.63,1.29.12.23.12.24.11.19.08-.07-.18-.13Zm17.16,4.26-.23.12-.46.22.1.16.38-.35a1.71,1.71,0,0,0,.23-.13l.05-.07Zm-1,.59-.23.12-1.48.57.1.23,1.4-.77.24-.12.05-.07Zm-10.65.49-.25-.2-.06.11.31.09.59.24.36.12a1,1,0,0,0,.27.2,11.52,11.52,0,0,0,5.37.48,17.86,17.86,0,0,0,2.13-.52.36.36,0,0,0-.35-.09,18.79,18.79,0,0,1-3.3.49,36.07,36.07,0,0,1-4.12-.56l-.36-.12ZM46.45,24.3a.63.63,0,0,0,.12-1.08l-.06,0,.05.06-.12,1.06-.77.2.09.2ZM13,19a2.28,2.28,0,0,0-.24.39,11.78,11.78,0,0,0-.61,6.77,10.53,10.53,0,0,0,.35,1.22c.08-.19.1-.21.1-.23-.06-.21-.11-.42-.16-.63a12.12,12.12,0,0,1,0-5.49c.16-.68.39-1.35.59-2l.24-.36-.15-.06ZM46,22c-.63-.85-1.28-1.73-1.94-2.6,0-.05-.17,0-.26-.05l-.9,0c0,.07.08.17.14.26a9.55,9.55,0,0,1,1.12,1.77c.46,1.25.39,1.27,1.65.86C45.85,22.22,45.87,22.18,46,22ZM41.1,30.81c-.8,1.74-1,4.66-.42,5.68A12.29,12.29,0,0,1,41.1,30.81ZM40.62,11c-.57,1.08-.23,4.34.51,5.57A12,12,0,0,1,40.62,11ZM32.15,31.37c-.29-.2-.47-.43-.63-.41s-.37.25-.56.39c.17.17.32.46.5.48S31.84,31.59,32.15,31.37ZM40.79,9.84c.19-.24.42-.4.39-.52a.67.67,0,0,0-.39-.4c-.07,0-.35.22-.35.33S40.63,9.58,40.79,9.84Zm.61,28.32c-.3-.21-.45-.4-.62-.41s-.32.23-.34.38.21.35.33.36S41.1,38.33,41.4,38.16ZM27.25,12.54l-.05.14.89.32,0-.13ZM34,18.15l-.16.09.23.34.12-.07Zm-5.6-5.09,0,0,0,0,.06,0Z"/><path class="cls-1" d="M11,35.54l-7.15,7-.16-.13c.24-.47.49-.94.71-1.42a11.82,11.82,0,0,0,.12-10.13,25.28,25.28,0,0,0-2.78-4.07l-.3-.43L0,24.05v-.59c.3-.39.63-.77.91-1.18.14-.23.16-.54.32-.76a23.1,23.1,0,0,1,1.38-1.91,11.88,11.88,0,0,0,2.57-4.76,30.19,30.19,0,0,0,.41-3.44c0-.25,0-.51,0-.76l.16-.57h0v1.17l-.09.44h.1v-.45A2.53,2.53,0,0,0,6,10.39C5.79,9.24,5.54,8.09,5.3,7a6.6,6.6,0,0,1,1,.89c.5.49,1,.95,1.55,1.42l.47.48.49.46.11.12.11.13.12.12.13.11.11.12.12.12.12.12.1,0L9.61,11l-.12-.12-.11-.11-.13-.12-.11-.12L9,10.41,8.9,10.3l-.12-.12-.47-.47-.48-.48-.59-.85a10.5,10.5,0,0,1,1,.77c.84.8,1.65,1.63,2.48,2.44a3.18,3.18,0,0,0,.43.28c.14.25.28.49.44.73s.34.45.51.67h-.31l-.87,1.07.12.22h0l.12.12h0l.24.12h0l.12.13h0l.12.12h0l.24.24h0l.12.12h0l.12.12v0l-.12.44c-.58-.58-1.1-1.08-1.58-1.62a2.28,2.28,0,0,1-.31-.71L10,13.5l-.12-.11-.12-.12-.11-.13L9.38,13l-.12-.11-.12-.11-.24-.24-.12-.12-.12-.12-.11-.13-.08,0,0,.08.13.11.12.12.12.12.24.24.11.11.12.12.23.13.12.12.12.11.11.13.12.12c-.26.42-.43,0-.55-.1C9,13,8.47,12.48,8,11.94a7.57,7.57,0,0,0-.73-.57c0,1.11,0,2,0,3a7.55,7.55,0,0,1-1.63,4.33c-.66.89-1.31,1.8-1.89,2.74a6.17,6.17,0,0,0-.48,1.43l0-.82c0-.18-.08-.4,0-.52.76-1.13,1.55-2.24,2.34-3.35L5.68,18h0L6,17.18a1.9,1.9,0,0,0,.34-.42,10.94,10.94,0,0,0,.72-5c0-.38-.13-.75-.22-1.3a28.93,28.93,0,0,1,0,3.51A26.46,26.46,0,0,1,6,17.18l-.12.1a1.28,1.28,0,0,0-1.6.85,3,3,0,0,1-.49.82c-.72.94-1.45,1.86-2.15,2.8a.53.53,0,0,0,0,.47c.41.13.84.21,1.26.3l.21.37.15.2c-.22.43-.3.84.11,1.2a3.4,3.4,0,0,0,0,.45A5.88,5.88,0,0,0,4.9,27.81a9.55,9.55,0,0,1,2.34,7.68,3.64,3.64,0,0,0,0,.54l1.26-1a1.71,1.71,0,0,1-.13.23l-.12.12-.12.11L8,35.65l0,.08.09,0,.11-.12.12-.13.11-.12.83-.72.24-.23.12-.11L10,34l-.11-.15H9.6l2-1.9h0v.36h0l-.12.12h0l-.12.12h0l-.24.24h0l-.23.12h0l-.5.45-.05.08.08,0,.2,0,.86,1-.37.47L11,35l-.12.11-.12.12-.11.13-.13.11-.12.12-.12.11,0,.08.08,0,.12-.12.11-.12.12-.13.12-.11.12-.12L11,35l.11-.13c.34,0,.37.12.2.36A3.31,3.31,0,0,1,11,35.54ZM5.7,40.3l.12-.12.11-.12.12-.12.12-.11.12-.12.12-.12.12-.12.12-.12.12-.12.11-.12L7,39l.12-.12.12-.12.12-.12.12-.12.12-.12.12-.11.11-.13L8,38.05l.12-.12.12-.12.12-.12.12-.11.12-.12.12-.11.07-.07-.11,0-.12.12-.11.12-.12.12-.12.11L8,37.9,7.92,38l-.11.12-.12.12-.12.12-.12.12-.12.12-.12.11-.11.12L7,39l-.12.12-.12.12-.12.11-.12.12-.11.12-.12.12-.12.12L6,39.92,5.91,40l-.12.11-.12.12-.11.12-.34.08v-.42l.1-.25-.08,0,0,.27-.37.87L5,41l.57-.61ZM5.32,29h0l-.18-.24a19.13,19.13,0,0,1-1.39-1.86,20.7,20.7,0,0,1-.93-2.14l-1.37.59c.39.55.71,1,1.06,1.49.65.88,1.32,1.75,2,2.63l-.08.06.08.05h0c.07.22.12.44.2.66.31.88.67,1.75.94,2.64a10.89,10.89,0,0,1,.22,1.62,9,9,0,0,0-1.13-4.68c0-.54.45-.29.72-.36h.22l.13.23.23.48.3.72.13-.07-.42-.66-.24-.47-.1-.25-.27-.33h0Zm1.32,2.6,0-.16,0,0a.64.64,0,0,0,.08.14,16.23,16.23,0,0,1,.15,4.82c0,.08.11.18.18.27l.15-.08c0-.89.06-1.79,0-2.68A21,21,0,0,0,6.64,31.63Zm-4.45-8c-.26-.16-.44-.35-.55-.32a2,2,0,0,0-.56.37l.37.52ZM6.07,36.34H5.91l-.53,3.14.17,0ZM5.38,15.8l.17,0L6.06,13,5.9,13Zm-2.91,8c-.08-.1-.12-.18-.19-.22s-.16.07-.16.1a.4.4,0,0,0,.12.22S2.36,23.86,2.47,23.81Z"/><path class="cls-1" d="M24.29,0c.05.08.07.2.15.25A21.28,21.28,0,0,0,26.76,1.6a10.06,10.06,0,0,1,2.15,1.66,10,10,0,0,0,2.78,1.82,10.15,10.15,0,0,0,4.67,1,11.69,11.69,0,0,0,5.71-1.7,1.17,1.17,0,0,1,.31-.17,3,3,0,0,1,.54-.07c-.53.54-.94,1-1.38,1.43L37.16,9.85l-1.48,1.39-1.2.85v-.25h0l.12-.12h0l.12-.12h0l.61-.46.13-.23.23-.12.12-.12.12-.12.12-.12.12-.11,0-.09-.08,0-.12.12-.11.12-.12.12-.12.11-.22.14-.14.22-.47.26c-.1,0-.23,0-.28,0-.48-.52-.82-.2-1.15.18a.44.44,0,0,1-.15.08l-.32-.07,1.21-1.12,0,.22,0,.08.08-.05.25-.23.45-.37.36-.36.12-.11.27-.33-.16,0,1.42-1.3a.41.41,0,0,0,0,.11l-.12.12-.12.11-.13.11-.06.07.1,0,.12-.12.11-.12.12-.12L37,8l.12-.12.25-.23.54-.44-.38,0a26,26,0,0,1-2.92.09,25.34,25.34,0,0,1-2.83-.48L31.3,6.5l-.05.14.49.13c.27.11.53.24.8.33a15.1,15.1,0,0,0,4.78.37h0s0,.07,0,.11l-.23.24L37,7.92l-.1,0c-.13-.12-.26-.33-.4-.33-.84,0-1.68,0-2.51,0A10.8,10.8,0,0,1,29.4,5.88c-1.24-.74-2.16-2-3.59-2.4L24.7,3.09,24.92,3a5.25,5.25,0,0,1,2.7,1.13c.75.49,1.45,1.06,2.22,1.63.08-.72.08-.72.58-.74l.39.13.23.12.23.12.23.13c.15.12.29.3.46.35a12.2,12.2,0,0,0,7.2.31c.52-.15,1.06-.22,1.59-.33l-.12.11L40.51,6l0,.1.06-.07.12-.12.12-.12.59-.44c-.91.16-1.75.43-2.59.66a9.34,9.34,0,0,1-4.3.16c-1-.19-2-.5-2.95-.76l-.23-.13-.24-.12-.24-.1-1-.58h0l-.05-.09-.06.09a21.15,21.15,0,0,0-4.38-3.15L24.8,2.83,24.55,3,23,3.1a2.87,2.87,0,0,0-.66.14,12.64,12.64,0,0,0-2,.9c-1.05.67-2,1.5-3.05,2.15a9.35,9.35,0,0,1-6.26,1.32c-.28,0-.42,0-.39.33h0l-.22,0-.11-.12-.12-.12c.12-.07.23-.19.35-.2.37,0,.75,0,1.12,0L14,7.41V7.24H9.75l.43.48.11.12.13.1,1.06,1L11.6,9l.23.24.08.05,0-.08,0-.23c.89.83,1.78,1.64,2.66,2.48.39.38.73.82,1.1,1.24A3.31,3.31,0,0,1,15,12.4c-.44-.43-.85-.89-1.29-1.32-.57-.58-.93-.49-1.28.3l-.61,0L9.36,9,4.52,4.22s0-.07,0-.23a4.78,4.78,0,0,1,.57.23A14.28,14.28,0,0,0,7,5.29c.83.29,1.74.33,2.57.6A6.93,6.93,0,0,0,13,6a10.36,10.36,0,0,0,4.83-2.21,24.12,24.12,0,0,1,2-1.64C20.52,1.7,21.28,1.4,22,1c.08,0,.13-.13.21-.18L23.34,0ZM37.58,8.91l.12-.12.12-.12.12-.12.47-.46L38.64,8l.12-.12.12-.11L39,7.6l.11-.13.12-.11.13-.11.12-.12.06-.07-.11,0-.11.12-.11.13-.12.12a.69.69,0,0,1-.13.11l-.11.12-.12.13-.11.12-.24.12-.47.47-.12.12-.12.12-.12.11L37.43,9l-.12.12,0,.08.07,0A.69.69,0,0,1,37.47,9ZM11,9.94l-.12-.11-.36-.35-.22-.14-.24-.24L10,9l-.13-.11-.08,0,.05.08L9.94,9l.12.12.24.23.23.13.35.36L11,10l.12.11.13.11.11.13.12.12.12.11.12.12.11.13.1,0-.07-.07-.13-.11-.12-.12-.11-.12-.12-.12-.12-.11-.12-.12ZM7.59,6.63l-.12-.12-.22-.14L6.89,6l-.07-.34a10.56,10.56,0,0,0,4.54.82c1.24-.13,2.47-.37,3.71-.56l.22.83a1.81,1.81,0,0,0,.65-.14c1.14-.73,2.26-1.48,3.4-2.22.56-.38,1.14-.74,1.7-1.1l1.5-.49,0,0,.06-.23h0l-.11-.23c-.31-.92-.76-1.07-1.51-.49-.14.1-.23.27-.37.38-.8.58-1.59,1.16-2.4,1.72S16.5,5.12,15.63,5.68a1.41,1.41,0,0,0-.46,0,11,11,0,0,1-5.79.48c-1-.2-2-.51-3.17-.81.28.29.46.49.65.7l.36.35.23.12.11.12.12.12.13.12L7.92,7,8,7.13l.12.12.12.12.08,0,0-.08-.11-.12-.12-.12L8,7l-.13-.11-.11-.12ZM23.48,1.79H24a4.17,4.17,0,0,0,0-.71,1,1,0,0,0-.48,0A2.7,2.7,0,0,0,23.48,1.79Zm.21.16a1.11,1.11,0,0,0-.18.33c0,.06.15.19.18.17s.21-.13.22-.22S23.79,2.08,23.69,2Z"/><path class="cls-1" d="M39.47,40c.51.41,1,.8,1.52,1.25.72.67,1.4,1.38,2.1,2.08a.5.5,0,0,1,.15.35c-.25-.15-.5-.28-.74-.44a10.24,10.24,0,0,0-5.41-1.79,16.47,16.47,0,0,0-3.65.16,8.32,8.32,0,0,0-3.52,1.77c-.77.6-1.49,1.27-2.29,1.83-.6.43-1.29.71-1.92,1.11s-.95.69-1.42,1H23.22c-1.72-1.29-3.7-2.17-5.31-3.66a8.75,8.75,0,0,0-5.43-2.27,11.93,11.93,0,0,0-7.4,1.73,4.78,4.78,0,0,1-.64.32l-.12-.16c.47-.45.93-.92,1.41-1.36S7,40.92,7.58,40.38c0,.12,0,.24,0,.36l-.11.12L7.33,41l-.12.11-.13.12L7,41.33l-.11.13-.12.11L6.15,42l.23.19.38-.64.12-.11L7,41.36l.12-.11.12-.12L7.35,41l.12-.11.13-.11.33-.63c.61-.69,1.21-1.39,1.85-2s1.11-1,1.65-1.51a1.39,1.39,0,0,0,.2-.34l.58-.23.07.19.18-.17.17,0,.47.52L13,36.9l.21.17,1.44-1.65.3.06-3.87,4.33c.47,0,1.27,0,2.07,0a6.93,6.93,0,0,1,3.35.94,1.3,1.3,0,0,1-.4,0,11.42,11.42,0,0,0-6-.71,1.52,1.52,0,0,0-.4.16l0,.14a11,11,0,0,1,6.71.75v-.3c1,.62,2,1.2,3,1.86A8,8,0,0,0,23,44.3l1.31-.22.38.48c.07-.11.12-.32.21-.34,1.57-.29,2.7-1.34,3.93-2.23A10.18,10.18,0,0,1,31,40.6a10.29,10.29,0,0,1,4.6-.79c.39,0,.8,0,1.18,0l-.87-1.18h0c0-.08.09-.21.06-.23-.36-.34-.73-.66-1.1-1l-.25-.23-.08,0,0,.08,0,.22a1.39,1.39,0,0,1-.72-1.07l.87-.47.68.6.23.23.47.37.12.12.12.12.11.12.12.11.12.12.11.13.12.12.12.12.08,0,0-.08L37,37.9l-.12-.12-.13-.11-.12-.12-.11-.12-.12-.11-.12-.12-.12-.12-.47-.36a2.73,2.73,0,0,0-.23-.25L35.19,36l.49.13L38,38.59l-.12,0-.22,0-.08,0,0,.08,1.56,1.41h0c.12.12.23.25.34.37l.12.12.11.12.12.12.09,0,0-.09-.12-.11-.12-.12-.12-.12-.17-.3Zm-2.15-.22.12.12A22.79,22.79,0,0,0,35,40a23.82,23.82,0,0,0-2.5.45L31,41l-.23.11-.48.24-.31.21.1.11.24-.29.47-.25.23-.12,1.42-.59c.25,0,.5-.07.76-.08,1-.06,2.05-.13,3.08-.16a11.56,11.56,0,0,1,1.43.09l0-.13-.34-.21-.11-.12-.12-.12-.12-.12L37,39.51l.06.08.11.12Zm-28.77,0,.11-.12.12-.12.12-.12.23-.24.12-.12L9.37,39l.59-.48.12-.12.11-.12.12-.12.13-.11.12-.12.11-.12.12-.12.12-.11.13-.12.11-.12.11-.13.05-.07-.07,0-.12.12-.12.11-.12.12-.12.12-.12.12-.12.12-.11.11-.12.13-.12.12-.12.11-.12.12L9.35,39l-.12.12-.11.12-.25.24-.11.11-.12.12-.13.12,0,.08Zm8.4,2.7-.12-.12L16,41.94l-.82-.39-.07.19L16,42l.83.47.11.12.23.13.25.1.49.34h0l0,.08.06-.07a13.46,13.46,0,0,0,3.74,2.71c.15.07.55-.14.64-.32s.38-.59-.11-.86c-1.07-.58-2.12-1.21-3.16-1.85-.57-.35-1.1-.77-1.65-1.15a.9.9,0,0,1,.14,1.14l-.18,0-.23-.12Zm5.92,3.09-.13.56.1,0,0-.58.12-.11.21,0a1.79,1.79,0,0,0,0,.52.71.71,0,0,0,.29.43.49.49,0,0,0,.47-.07.92.92,0,0,0,.18-.51c0-.06-.13-.15-.21-.2a3.28,3.28,0,0,0-.37-.22h0l.4-.13c.45-.19.1-.4,0-.51a.45.45,0,0,0-.45,0,4.72,4.72,0,0,0-.51.65ZM7.24,41.72h.12a12.78,12.78,0,0,1,7.35-.15s.12,0,.29-.09l-.32-.12A12.38,12.38,0,0,0,9.37,41a15.75,15.75,0,0,0-2.16.66L7,41.74l0,.09Zm22.6,0c-1.6,1.08-3,2.45-5,2.91a8,8,0,0,1,.39,1c.13.49.39.47.73.23L27,45.05l3.24-2.43Zm10.6,0c-1.73-1.18-7.29-1.15-8.51,0A12.87,12.87,0,0,1,40.44,41.8ZM8.92,39.94c-.16.23-.34.39-.32.52s.23.27.36.4c.12-.15.32-.29.35-.45S9.1,40.15,8.92,39.94Zm29.57,1c.17-.24.33-.39.35-.54s-.18-.25-.28-.38c-.14.12-.36.22-.38.34S38.34,40.72,38.49,41Zm2.71,1.15.06-.16-.5-.19L40.7,42Z"/><path class="cls-2" d="M34.13,10.43l-1.21,1.12.32.07-2.17,2A13.65,13.65,0,0,0,29.76,13a31.31,31.31,0,0,0-3.08-1.09,11.75,11.75,0,0,0-9.59,1.57c-.36.22-.57,0-.84,0l-.64-.66c-.37-.42-.71-.86-1.1-1.24-.88-.84-1.77-1.65-2.66-2.48h0l-.48-.36-.14-.29-.15.13.3.16.13.22,0,0-1.06-1,0,0,.22,0,.16,0-.16,0c0-.3.11-.37.39-.33a9.35,9.35,0,0,0,6.26-1.32c1.06-.65,2-1.48,3.05-2.15a12.64,12.64,0,0,1,2-.9A2.87,2.87,0,0,1,23,3.1a1.28,1.28,0,0,0,.26.44c.14.11.43.24.52.17A6,6,0,0,0,24.55,3l.25-.14.12.12-.22.14,1.11.39c1.43.44,2.35,1.66,3.59,2.4a10.8,10.8,0,0,0,4.54,1.69c.83.08,1.67,0,2.51,0,.14,0,.27.21.4.33h0l-1.42,1.3h0L35,9.72h0l-.13.13h0l-.48.36h0l-.24.24Z"/><path class="cls-2" d="M23,44.3a8,8,0,0,1-3.57-1.68c-.95-.66-2-1.24-3-1.86h0a6.93,6.93,0,0,0-3.35-.94c-.8,0-1.6,0-2.07,0l3.87-4.33-.3-.06,1.83-1.65A19.2,19.2,0,0,0,18.82,35a13,13,0,0,0,3.38.84,18.34,18.34,0,0,0,4.5-.24,18.32,18.32,0,0,0,3.44-1.38c.27-.11.53-.24.8-.36h0l2.38,2.67.11-.54.45.37a1.39,1.39,0,0,0,.72,1.07h0l.21,0,0,0c.37.32.74.64,1.1,1,0,0,0,.15-.06.23l-.12-.12-.11-.12-.12-.12-.13-.09,0,0,.16,0,.11.12.12.12.12.12.87,1.18c-.38,0-.79,0-1.18,0a10.29,10.29,0,0,0-4.6.79A10.18,10.18,0,0,0,28.83,42c-1.23.89-2.36,1.94-3.93,2.23-.09,0-.14.23-.21.34l-.38-.48c-.33-.71-.62-.76-1-.17Zm12.07-6.5a.05.05,0,0,0,0,0h0l0,0,0,.16.05,0Zm-14.55.69-.13-.34-.13.05.14.36.43.44.44.29.07-.13-.41-.26Zm5.18,0,.34.26c.25-.29.77-.44.51-1a11,11,0,0,0-.89-.91c-.38-.3-.59-.15-.81.25s.11.61.29.87a3.25,3.25,0,0,0-.63.45c-.51.61-1,1.27-1.5,1.87-.36.42-.79.79-1.19,1.19a10.43,10.43,0,0,0-.92,1c-.09.13,0,.4,0,.6.19-.07.47-.09.56-.23a13.5,13.5,0,0,0,.66-1.25l.3-.23,1.51-1.2,1.39,1.44c0-.49-.7-1.26-1.26-1.56.16-.23.34-.45.48-.69.25-.4.48-.82.72-1.23Zm-3.88,0,.22-.09,1.28,1.34.25-.18c-.34-.53-.39-1.21-1-1.64l.14-1.49a1.15,1.15,0,0,0-.3.39c-.55-.2-.72.43-1.13.51a2.55,2.55,0,0,0-.38.35c-.3.43,0,.67.3.94S21.68,38.76,21.82,38.48Zm4.36,4-.08.22.52.2.09-.26Z"/><path class="cls-2" d="M36.25,14.67c.07.07.17.2.2.19a2,2,0,0,0,.48-.33c.9-.88,1.79-1.77,2.68-2.66l.56-.51c0,.39,0,.61,0,.84a9.17,9.17,0,0,0,.6,4.44A33.11,33.11,0,0,0,43,20a6.11,6.11,0,0,1,1.14,2.56,4.15,4.15,0,0,0,.22.65l-1.11.41c.33.52.65.69,1.11.57l.23.57-.12.36-.31-.68c0,1.85-1.21,2.91-2.11,4.12a8.82,8.82,0,0,0-1.83,5.53V35.7l-.2.06c-.36-.32-.73-.63-1.08-.95L35,31.18c-.07-.07-.2-.08-.31-.12l-.45-.39a5.13,5.13,0,0,1,.38-1.3A10.17,10.17,0,0,0,35.76,26a11.91,11.91,0,0,0,.09-4.21,11.33,11.33,0,0,0-2-4.92,1,1,0,0,1-.08-.41c.15,0,.34,0,.46-.07.32-.22.62-.48.92-.72l-.1.33-.12.12-.65.6.14.12.51-.73.12-.11.84-.71.16,0,0-.05-.13.09-.26,0Z"/><path class="cls-2" d="M8.53,35.07,7.27,36a3.64,3.64,0,0,1,0-.54A9.55,9.55,0,0,0,4.9,27.81a5.88,5.88,0,0,1-1.49-3.07,3.4,3.4,0,0,1,0-.45l.73-.54-.84-.66-.15-.2,0,0a6.17,6.17,0,0,1,.48-1.43c.58-.94,1.23-1.85,1.89-2.74a7.55,7.55,0,0,0,1.63-4.33c0-.94,0-1.87,0-3a7.57,7.57,0,0,1,.73.57c.52.54,1,1.1,1.55,1.61.12.11.29.52.55.1l0,0a2.28,2.28,0,0,0,.31.71c.48.54,1,1,1.58,1.62l.12-.44,1,1.35a.72.72,0,0,1-.1.8,12.58,12.58,0,0,0-.91,2,12.2,12.2,0,0,0-.62,4.32,10.66,10.66,0,0,0,1.4,5.56.94.94,0,0,1-.2,1.35c-.4.34-.73.76-1.1,1.14l-2,1.9h0L9,34.6H9l-.12.12h0l-.12.12h0L8.65,35h0l-.12.12Z"/><path class="cls-3" d="M13.61,22.18c.26-.83.51-1.65.79-2.47a8,8,0,0,1,1.86-2.89A15,15,0,0,1,19,14.56a6,6,0,0,0,.55-.48l-1.16-.58.07-.23h0l.37-.12h0L20,12.68c.66-.11,1.31-.27,2-.33a12.84,12.84,0,0,1,2.63,0c-.49,0-1,0-1.47,0a1,1,0,0,0-.59.29.53.53,0,0,0-.12.48c0,.09.29.17.43.15a8.52,8.52,0,0,1,3.12.55,9.65,9.65,0,0,1,3.41,1.4,15.15,15.15,0,0,1,1.81,1.59,10,10,0,0,1,2.31,3.91,6.62,6.62,0,0,1,.28,3.59c-.17.78-.16,1.6-.34,2.37a6.94,6.94,0,0,1-.65,1.63A10.34,10.34,0,0,1,29.63,32a7.34,7.34,0,0,1-3.25,1.46c-.74.11-1.47.29-2.2.44l-3.06-.41A6.61,6.61,0,0,1,18,32a15.25,15.25,0,0,1-2.5-2.45A8.75,8.75,0,0,1,13.68,25c-.07-.76-.11-1.52-.17-2.27C13.54,22.56,13.58,22.37,13.61,22.18ZM23.7,14.09a9.57,9.57,0,0,0,.05,19.14,9.43,9.43,0,0,0,9.49-9.59A9.57,9.57,0,0,0,23.7,14.09Z"/><path class="cls-2" d="M12.21,36l-.58.23-.6-.71a3.31,3.31,0,0,0,.32-.33c.17-.24.14-.39-.2-.36l0,0,.37-.47.34-.24.15.19,0,0-.2-.16.47-.48.11.48,2-2.23h0l.93.84-.82,1.06-.12.12-.11.12-.12.11-.12.12-.12.12,0,0s0,0,0,0l.06,0,.12-.12.12-.11.12-.12.12-.12.12-.12h.3l-1.47,1.43v-.35l-.11,0-.27.38-.11.12L12.2,36Z"/><path class="cls-2" d="M11.84,11.36l.61,0,0,.18c.22.73.85,1,1.41,1.42l-.24-.5a4.72,4.72,0,0,1,.52.35c.5.5,1,1,1.46,1.52h-.34l-.12-.12-.12-.12L14.93,14l-.12-.12-.12-.12-.12-.11-.11-.12-.12-.12-.1-.23-.12.14.22.09.12.12.11.12.12.12.12.11.12.12.12.12.11.12.12.12c.25.64-.41.76-.6,1.13L12.8,14h0l-.12-.12h0l-.12-.13h0l-.24-.24h0l-.12-.12h0l-.13-.12h0c-.17-.22-.35-.44-.51-.67s-.3-.48-.44-.73Z"/><path class="cls-2" d="M35.68,36.15,35.19,36h0l-.12-.12h0L35,35.78h0l-.13-.13h0l-.12-.12h0l-.12-.12h0l-.12-.12h0l-.12-.12h0l-.12-.12h0L34.12,35h0L34,34.83h0l-1.83-2,.61-.87a2.46,2.46,0,0,1,.49.31q1.53,1.51,3,3.06c0,.05,0,.14.07.22Z"/><path class="cls-2" d="M34.48,12.09l1.2-.85.81.63c-1.1,1.12-2.19,2.25-3.31,3.35a.6.6,0,0,1-.57,0,2.73,2.73,0,0,1-.56-.5l1.37-1.58h0l.12-.12h0l.12-.13h0l.12-.12h0l.12-.12h0l.12-.12h0l.13-.12h0l.13-.12h0l.12-.12h0l.12-.13Z"/><path class="cls-3" d="M44.42,25.11l.12-.36,1.58.58L43,29.39l-.13.35h0l-.24.19c0-.42-.29-.48-.59-.54h0c.49-.74,1-1.47,1.46-2.21.21-.34.37-.71.56-1.06s.2-.5.31-.75Z"/><path class="cls-3" d="M35.17,15.67c-.3.24-.6.5-.92.72-.12.08-.31.05-.46.07s0,0,0-.05c-.45-.76-.45-.76.2-1.44l1.35-1.45.35-.24h0l.24-.24h0l.12-.12h0l0,0,.05,0c.24.35.48.71.71,1.07a.09.09,0,0,0,0,.1h0l-.12.12h0l-.24.24h0l-.12.12h0l-.12.12v0l-.61.58Z"/><path class="cls-3" d="M11.84,34.12l-.34.24c-.29-.32-.58-.63-.86-1l.27-.46h0l.23-.12h0l.24-.24h0l.12-.12h0l.12-.12h0L12,32c.32-.28.65-.55,1-.85.52-.51.51-.52.93,0l.18.22h0l.12.16a.08.08,0,0,0,0,.09L14,32l0,0-.46.46h0l-.24.23h0l-.23.23h0l-.24.23h0l-.24.24h0l-.23.23h0l-.47.48Z"/><path class="cls-3" d="M34.25,30.67l.45.39a5,5,0,0,0,.71,1c1.18.93,1,1.18.37,2.24C35,33.5,34.19,32.75,33.42,32c-.08-.07-.13-.29-.08-.35C33.62,31.29,33.94,31,34.25,30.67Z"/><path class="cls-3" d="M13.14,16.85l-1-1.35v0L12,15.4h0l-.12-.12h0L11.62,15h0l-.12-.12h0l-.12-.13h0l-.24-.12h0L11,14.56h0l-.12-.22.87-1.07.51.5.5.44h0l.12.11h0l.12.12h0l.12.12h0l.12.12h0l.12.12h0l.73.93C13.88,16.2,13.84,16.82,13.14,16.85Z"/><path class="cls-3" d="M15.63,14.35c-.49-.5-1-1-1.46-1.52a4.72,4.72,0,0,0-.52-.35l-1.17-.92,0-.18c.35-.79.71-.88,1.28-.3.44.43.85.89,1.29,1.32a3.31,3.31,0,0,0,.59.32l.64.66A1,1,0,0,1,15.63,14.35Z"/><path class="cls-3" d="M13.41,35.21l1.47-1.43c.7-.77,1.07-.77,1.57,0l-1.83,1.65-1.44,1.65L13,36.9l.13-.38L12.63,36l.19-.31h0l.6-.48Z"/><path class="cls-3" d="M33.88,36.37,33.43,36v0l-.12-.13h0l-.12-.12h0L33,35.54h0l-.35-.32c-.17-.15-.34-.32-.52-.47l-1.14-.88h0a4.06,4.06,0,0,1,.36-.46c.35-.35.68-.42,1.05,0s.87.94,1.31,1.4l1.09,1Z"/><path class="cls-3" d="M46,22c-.14.15-.16.19-.19.2-1.26.41-1.19.39-1.65-.86a9.55,9.55,0,0,0-1.12-1.77c-.06-.09-.1-.19-.14-.26l.9,0c.09,0,.22,0,.26.05C44.73,20.3,45.38,21.18,46,22Z"/><path class="cls-3" d="M31.07,13.64l2.17-2a.44.44,0,0,0,.15-.08c.33-.38.67-.7,1.15-.18.05.05.18,0,.28,0l-.11.23h0l-.12.12h0l-.12.12h0l-1.35,1.3c-.28.25-.56.48-.82.74C31.76,14.43,31.45,14.37,31.07,13.64Z"/><path class="cls-2" d="M41.83,36.26c.09.83.17,1.65.26,2.47.1.5.19,1,.31,1.49.06.24.17.46.31.85-.23-.14-.34-.17-.36-.23a17.08,17.08,0,0,1-1-6,9.2,9.2,0,0,1,.92-3.92h0c-.21,1-.46,2-.61,3.08-.12.85-.1,1.71-.16,2.72Z"/><path class="cls-2" d="M42.2,8.31l-.15,1.16c-.11.14-.31.26-.33.41a13.77,13.77,0,0,0,.5,6.15c.18.55.46,1.08.69,1.61l0,0a7.14,7.14,0,0,1-1.25-3.12,12,12,0,0,1-.23-3,10,10,0,0,1,.77-4l0,0Z"/><path class="cls-2" d="M13,19c-.2.68-.43,1.35-.59,2a12.12,12.12,0,0,0,0,5.49c0,.21.1.42.16.63,0,0,0,0-.1.23a10.53,10.53,0,0,1-.35-1.22,11.78,11.78,0,0,1,.61-6.77A2.28,2.28,0,0,1,13,19Z"/><path class="cls-2" d="M19.79,34.72a36.07,36.07,0,0,0,4.12.56,18.79,18.79,0,0,0,3.3-.49.36.36,0,0,1,.35.09,17.86,17.86,0,0,1-2.13.52,11.52,11.52,0,0,1-5.37-.48,1,1,0,0,1-.27-.2Z"/><path class="cls-2" d="M41.1,30.81a12.29,12.29,0,0,0-.42,5.68C40.08,35.47,40.3,32.55,41.1,30.81Z"/><path class="cls-2" d="M40.62,11a12,12,0,0,0,.51,5.57C40.39,15.37,40.05,12.11,40.62,11Z"/><path class="cls-3" d="M44.31,24.18c-.46.12-.78-.05-1.11-.57l1.11-.41c0,.17.11.34.16.52v.21Z"/><path class="cls-2" d="M21.12,33.46l3.06.41c-.65,0-1.3,0-1.94,0A5.25,5.25,0,0,1,21.12,33.46Z"/><path class="cls-2" d="M32.15,31.37c-.31.22-.52.48-.69.46s-.33-.31-.5-.48c.19-.14.36-.37.56-.39S31.86,31.17,32.15,31.37Z"/><path class="cls-2" d="M44.48,23.93v-.21l.54-.14c0,.12.08.23.11.35l.22-.16-.31-.2.59-.1v.58c-.11.23-.26.34-.52.2Z"/><path class="cls-2" d="M34.61,19.54c.23.65.5,1.3.68,2a4.55,4.55,0,0,1,.11,1.33l-.81-3.28Z"/><path class="cls-2" d="M40.79,9.84c-.16-.26-.34-.42-.35-.59s.28-.36.35-.33a.67.67,0,0,1,.39.4C41.21,9.44,41,9.6,40.79,9.84Z"/><path class="cls-2" d="M41.4,38.16c-.3.17-.47.33-.63.33s-.34-.25-.33-.36.23-.38.34-.38S41.1,38,41.4,38.16Z"/><path class="cls-3" d="M45.61,24.05v-.58a1.62,1.62,0,0,1,.59.08c.08,0,0,.3.06.46Z"/><path class="cls-2" d="M16.23,14.81c-.33.51-.62,1.06-1.3,1.19h0l1.3-1.19Z"/><path class="cls-2" d="M34.75,35.9l-1.09-1H34l.13.13h0l.13.12h0l.12.12h0l.12.12h0l.12.12h0l.12.12h0l.12.12h0l.13.13h0l.12.12h0l.12.12h0l.26.45,0,0Z"/><path class="cls-2" d="M34.48,28.32,35,26.47l.19.07-.74,1.78Z"/><path class="cls-2" d="M14.11,15.75l-.73-.93,1.13.85-.09.14Z"/><path class="cls-2" d="M29.28,34l-1.4.77-.1-.23L29.26,34Z"/><path class="cls-2" d="M33.12,13.14l1.35-1.3v.25h0l-.12.13h0l-.12.12h0l-.13.12h0l-.13.12h0l-.12.12h0l-.12.12h0l-.12.12h0l-.12.13h0l-.12.12h-.29Z"/><path class="cls-2" d="M13.15,28.8l-.63-1.29.21-.08.43,1.36Z"/><path class="cls-2" d="M42.65,29.92l.24-.19-.46,1h0Z"/><path class="cls-2" d="M46.57,23.22a.63.63,0,0,1-.12,1.08h0l.12-1.06Z"/><path class="cls-2" d="M20,12.68l-1.18.48Z"/><path class="cls-2" d="M27.25,12.54l.88.33,0,.13-.89-.32Z"/><path class="cls-2" d="M18.49,13.27l-.07.23h0l-.31.13h0l-.19.13-.4.11h0Z"/><path class="cls-2" d="M46.45,24.3l-.69.39-.09-.2.77-.2Z"/><path class="cls-2" d="M44.4,25.37c-.11.25-.21.5-.31.75C44.07,25.82,44,25.5,44.4,25.37Z"/><path class="cls-2" d="M37.09,35.54l.71.71v0l-.72-.7Z"/><path class="cls-2" d="M42.41,6.86V6.42l.24,0-.21.42Z"/><path class="cls-2" d="M34,18.15l.19.36-.12.07-.23-.34Z"/><path class="cls-2" d="M42.17,7.57l.24-.71,0,0c-.08.23-.16.47-.25.7Z"/><path class="cls-2" d="M36.84,35.32l-.6-.47,0,0,.57.49Z"/><path class="cls-2" d="M12.79,14.22l-.5-.44.06-.06.21,0h0l.12.13h0l.12.12h0Z"/><path class="cls-2" d="M14,32l.25-.33c.07.07.15.14.22.22h0Z"/><path class="cls-2" d="M30.23,33.43l-.38.35-.1-.16.46-.22Z"/><path class="cls-2" d="M19.43,34.6l-.59-.24h0l.59.24Z"/><path class="cls-2" d="M34,29.27l.23-.48h0l-.24.48Z"/><path class="cls-2" d="M12,32l-.41.35V32Z"/><path class="cls-2" d="M13,19l.1-.42.15.06L13,19Z"/><path class="cls-2" d="M13.61,22.18c0,.19-.07.38-.1.57C13.55,22.56,13.58,22.37,13.61,22.18Z"/><path class="cls-2" d="M29.75,13.74l.35.24h0l-.36-.22Z"/><path class="cls-2" d="M32.24,31.76l-.36.36v0l.35-.36Z"/><path class="cls-2" d="M18.84,34.36l-.31-.09.06-.11.25.2Z"/><path class="cls-2" d="M36.84,14.09a.09.09,0,0,1,0-.1l.36-.14,0,0Z"/><path class="cls-2" d="M42.91,17.64l.23.36,0,0-.24-.36Z"/><path class="cls-2" d="M33.66,17.64l.31.15-.16.16-.16-.29Z"/><path class="cls-2" d="M35.67,13.28l-.35.24Z"/><path class="cls-2" d="M42.88,29.74l.13-.35Z"/><path class="cls-2" d="M13.4,29.26l.18.13-.08.07-.11-.19Z"/><path class="cls-2" d="M37.31,13.74l.23-.25,0,0-.25.23Z"/><path class="cls-2" d="M14.1,31.41l-.18-.22Z"/><path class="cls-2" d="M18.85,13.16l-.37.12Z"/><path class="cls-2" d="M35.91,13l-.24.24Z"/><path class="cls-2" d="M36.12,12.78l.25-.23h0l-.24.24Z"/><path class="cls-2" d="M34.59,19.55l-.12-.35,0,0,.12.36Z"/><path class="cls-2" d="M19.79,34.72l-.36-.12h0l.36.12Z"/><path class="cls-2" d="M36.24,34.85,36,34.62l0,0,.23.24Z"/><path class="cls-2" d="M36.49,14.45l.24-.24Z"/><path class="cls-2" d="M38.26,36.75,38,36.51l0,0,.24.24Z"/><path class="cls-2" d="M37.07,35.57l-.23-.25h0l.24.23Z"/><path class="cls-2" d="M36,34.62l-.24-.1.14-.13.15.19Z"/><path class="cls-2" d="M14.93,16l-.12.23h0l.12-.23Z"/><path class="cls-2" d="M29.26,34l.23-.12,0,0-.24.12Z"/><path class="cls-2" d="M30.46,33.3a1.71,1.71,0,0,1-.23.13l0,0,.23-.12Z"/><path class="cls-2" d="M33.52,17.43l-.11-.24h0l.12.23Z"/><path class="cls-2" d="M13.39,29.27,13.27,29h0l.12.24Z"/><path class="cls-2" d="M33.65,17.66l-.13-.23,0,0,.12.23Z"/><path class="cls-2" d="M28.44,13.06l0,0-.06,0,0,0Z"/><path class="cls-2" d="M43.14,18l.11.14-.07,0L43.12,18Z"/><path class="cls-2" d="M42.43,30.7l-.12.23h0l.11-.23Z"/><path class="cls-2" d="M14.1,30.33l.13.24h0l-.11-.24Z"/><path class="cls-2" d="M34.36,19l-.1-.14.07,0,0,.17Z"/><path class="cls-2" d="M34.47,19.2,34.36,19h0l.12.22Z"/><path class="cls-2" d="M14,30.22,13.86,30h0l.12.24Z"/><path class="cls-2" d="M29.15,13.39l-.17,0,.17,0Z"/><path class="cls-2" d="M33.77,29.62l0,.16,0-.16Z"/><path class="cls-2" d="M30.33,14.11,30.09,14h0l.24.11Z"/><path class="cls-2" d="M29.15,13.39l.24.12h0l-.23-.12Z"/><path class="cls-2" d="M13.16,28.79l.12.23h0l-.12-.23Z"/><path class="cls-2" d="M17.54,13.86l-.13.08.13-.08Z"/><path class="cls-2" d="M34.24,28.79l.12-.23h0l-.11.23Z"/><path class="cls-2" d="M34.48,28.32l-.12.24h0l.12-.24Z"/><path class="cls-3" d="M18.12,13.63l.31-.13Z"/><path class="cls-2" d="M29.73,13.76l-.23-.13h0l.24.12Z"/><path class="cls-2" d="M37.33,13.75l-.11.12,0,0,.11-.11Z"/><path class="cls-3" d="M17.94,13.75l.19-.13Z"/><path class="cls-2" d="M46.56,23.23l-.05-.06.06,0Z"/><path class="cls-2" d="M29.39,13.51l.12.11h0l-.12-.12Z"/><path class="cls-2" d="M37.54,13.49l.09-.05-.05.08Z"/><path class="cls-2" d="M34,29.27l0,.05,0-.05Z"/><path class="cls-3" d="M42.06,29.38l-.05.07s0,0,0,0l0,0Z"/><path class="cls-2" d="M33.77,29.62l0-.05,0,.05Z"/><path class="cls-2" d="M13.86,30l-.06-.06.07,0Z"/><path class="cls-2" d="M14,30.21l.11.12h0L14,30.22Z"/><path class="cls-2" d="M30.34,14.09l.05.07-.06-.05Z"/><path class="cls-2" d="M14.23,30.57l0,.06-.06-.05Z"/><path class="cls-2" d="M36.72,14.21l.12-.12Z"/><path class="cls-2" d="M32.58,31.27l.07-.05,0,.07Z"/><path class="cls-2" d="M32.6,31.29l-.07.05,0-.07Z"/><path class="cls-2" d="M12.91,14.34l-.12-.11Z"/><path class="cls-2" d="M14.21,31.56l-.12-.16Z"/><path class="cls-2" d="M32.22,31.74l.06,0,0,.07Z"/><path class="cls-2" d="M33.41,17.19l-.12-.12,0,0,.11.13Z"/><path class="cls-2" d="M36,12.92l-.12.12Z"/><path class="cls-2" d="M31.88,32.12l-.12.12,0,0,.13-.12Z"/><path class="cls-2" d="M31.76,32.24l-.12.12,0,0,.12-.11Z"/><path class="cls-2" d="M31.64,32.36l-.07,0,.05-.07Z"/><path class="cls-2" d="M31.15,32.69l.08,0-.05.08Z"/><path class="cls-2" d="M36.13,12.92l-.05,0,0,0,.09-.14,0,0S36.13,12.88,36.13,12.92Z"/><path class="cls-2" d="M31.18,32.72l-.08.05,0-.08Z"/><path class="cls-2" d="M33.19,16.93l.12.12,0,0L33.17,17Z"/><path class="cls-2" d="M16.82,33.18l-.05-.06.06.06Z"/><path class="cls-2" d="M16.83,33.18l.05,0-.06,0Z"/><path class="cls-2" d="M30.44,33.28l.07-.05-.05.07Z"/><path class="cls-2" d="M33.17,17l0-.07.06.05Z"/><path class="cls-2" d="M17.42,33.53l-.05,0,.05,0Z"/><path class="cls-2" d="M36.51,12.45l-.13.11h0a1.47,1.47,0,0,1,.1-.13Z"/><path class="cls-2" d="M17.42,33.53l.12.12h0l-.11-.12Z"/><path class="cls-2" d="M17.54,33.65l.05.05-.06-.05Z"/><path class="cls-2" d="M29.49,33.87l.08,0-.05.07Z"/><path class="cls-2" d="M36.62,12.33l-.11.12,0,0,.12-.12Z"/><path class="cls-2" d="M36.74,12.21l-.12.12,0,0a.69.69,0,0,1,.13-.11Z"/><path class="cls-2" d="M36.72,12.19l.12-.12,0,0-.12.12Z"/><path class="cls-2" d="M36.84,12.07l.11-.13,0,0-.12.11Z"/><path class="cls-2" d="M37.1,11.86,37,12l0,0,.11-.11Z"/><path class="cls-2" d="M37.06,11.83l.13-.12,0,0-.12.12Z"/><path class="cls-2" d="M37.33,11.62l-.11.12,0,0,.12-.12Z"/><path class="cls-2" d="M37.31,11.59l.11-.12,0,0-.13.12Z"/><path class="cls-2" d="M37.42,11.47l.12-.12,0,0-.11.11Z"/><path class="cls-2" d="M37.54,11.35l.12-.12,0,0-.12.12Z"/><path class="cls-2" d="M37.66,11.23l.12-.11,0,0-.12.12Z"/><path class="cls-2" d="M37.93,11l-.12.12,0,0,.11-.12Z"/><path class="cls-2" d="M37.8,36.25l.12.12,0,0-.11-.12Z"/><path class="cls-2" d="M14.69,16.35l-.06,0,.06,0Z"/><path class="cls-2" d="M38.05,10.91l-.12.12,0,0,.13-.12Z"/><path class="cls-2" d="M38,36.51l-.12-.12,0,0,.12.12Z"/><path class="cls-2" d="M14.81,16.23l-.12.12h0l.12-.12Z"/><path class="cls-2" d="M38,10.88l.12-.12,0,0-.12.12Z"/><path class="cls-2" d="M38.28,36.73l.12.12,0,0-.11-.13Z"/><path class="cls-2" d="M38.49,37l-.12-.12,0,0,.12.11Z"/><path class="cls-2" d="M38.52,37l.12.12,0,0L38.49,37Z"/><path class="cls-2" d="M38.73,37.22l-.12-.12,0,0,.11.12Z"/><path class="cls-2" d="M13,14.46l-.12-.12Z"/><path class="cls-2" d="M38.84,37.35l-.11-.13,0,0,.13.12Z"/><path class="cls-2" d="M39,37.47l-.12-.12,0,0,.11.11Z"/><path class="cls-2" d="M39.08,37.58,39,37.47l0,0,.12.12Z"/><path class="cls-2" d="M39.11,37.55l.12.12,0,0-.12-.12Z"/><path class="cls-2" d="M39.31,37.82l-.11-.12,0,0,.12.12Z"/><path class="cls-2" d="M38.14,10.76l.11-.12,0,0-.12.11Z"/><path class="cls-2" d="M39.35,37.79l.12.11,0,0-.12-.12Z"/><path class="cls-2" d="M39.55,38.06l-.12-.12,0,0,.12.12Z"/><path class="cls-2" d="M39.67,38.18l-.12-.12,0,0,.12.12Z"/><path class="cls-2" d="M13.15,14.58,13,14.46Z"/><path class="cls-2" d="M39.71,38.14l.12.12,0,0-.12-.12Z"/><path class="cls-2" d="M39.83,38.26l.12.12,0,0-.12-.12Z"/><path class="cls-2" d="M40,38.38l.11.12,0,0-.12-.11Z"/><path class="cls-2" d="M40.06,38.5l.12.12,0,0L40,38.53Z"/><path class="cls-2" d="M40.26,38.77l-.11-.12,0,0,.12.11Z"/><path class="cls-2" d="M40.38,38.89l-.12-.12,0,0,.12.12Z"/><path class="cls-2" d="M36.37,14.57l.12-.12Z"/><path class="cls-2" d="M40.42,38.85l.12.12,0,0-.12-.12Z"/><path class="cls-2" d="M38.25,10.64l.12-.12,0,0-.12.12Z"/><path class="cls-2" d="M40.54,39l.05.08-.09,0Z"/><path class="cls-2" d="M38.37,10.52l.11-.12.05,0-.12.12Z"/><path class="cls-2" d="M38.48,10.4l.12-.12,0,0-.12.12Z"/><path class="cls-2" d="M38.6,10.28l.11,0-.06.06Z"/><path class="cls-2" d="M13.27,14.7l-.12-.12Z"/><path class="cls-2" d="M36.25,14.69l.12-.12Z"/><path class="cls-2" d="M16.23,14.81l.06-.06a.08.08,0,0,0,0,0l-.05,0Z"/><path class="cls-2" d="M13.38,14.82l-.12-.12Z"/><path class="cls-2" d="M7.8,9.26c-.52-.47-1-.93-1.55-1.42A6.6,6.6,0,0,0,5.3,7c.24,1.14.49,2.29.68,3.44a2.53,2.53,0,0,1-.17.87h0V10.09h0l-.16.57C5.28,9.35,5,8.06,4.65,6.77l.49-.48a.07.07,0,0,1,.06.06l.3.3.07.1v0l.11.12v0L5.8,7V7l0,0,.11.12v0L6,7.18l.38.39h0l.16.13.06.12v0l0,0,.11.07.15.16.34.33.59.85Z"/><path class="cls-1" d="M5.14,6.29l-.49.48c-.38-.65-.75-1.3-1.13-1.94l.15-.14Z"/><path class="cls-1" d="M5.5,6.65l-.3-.3Z"/><path class="cls-1" d="M6.42,7.57,6,7.18Z"/><path class="cls-1" d="M6.9,8.05l-.15-.16Z"/><path class="cls-1" d="M6.57,7.7l-.16-.13Z"/><path class="cls-1" d="M6.64,7.82l0,0v0Z"/><path class="cls-1" d="M5.92,7.11v0Z"/><path class="cls-1" d="M5.81,7l0,0V7Z"/><path class="cls-1" d="M5.69,6.87v0Z"/><path class="cls-1" d="M5.57,6.75v0Z"/><path class="cls-2" d="M7.93,40.15l-.33.63,0,0,0-.36Z"/><path class="cls-1" d="M38.28,38.86l.6.56-.13,0L38.27,39Z"/><path class="cls-1" d="M39.26,39.77l.21.27,0,.05-.2,0h0l0-.21Z"/><path class="cls-1" d="M39,39.57l.26.2-.07.07L39,39.69Z"/><path class="cls-1" d="M38,38.59l.14.12-.15,0-.11-.12Z"/><path class="cls-1" d="M38.18,38.71l.1.15h-.13L38,38.75Z"/><path class="cls-1" d="M38.28,38.86h0V39l-.12-.11Z"/><path class="cls-1" d="M38.88,39.42l.12.15h-.14l-.11-.12Z"/><path class="cls-1" d="M39,39.57h0l0,.12-.12-.11Z"/><path class="cls-3" d="M5.54,18.16C4.75,19.27,4,20.38,3.2,21.51c-.09.12,0,.34,0,.52L3,22.52c-.42-.09-.85-.17-1.26-.3a.53.53,0,0,1,0-.47c.7-.94,1.43-1.86,2.15-2.8a3,3,0,0,0,.49-.82,1.28,1.28,0,0,1,1.6-.85L5.68,18h0Z"/><path class="cls-3" d="M5.46,29.5c-.27.07-.69-.18-.72.36l-.23-.24h0a.11.11,0,0,0,0-.11c-.67-.88-1.34-1.75-2-2.63-.35-.46-.67-.94-1.06-1.49l1.37-.59a20.7,20.7,0,0,0,.93,2.14A19.13,19.13,0,0,0,5.15,28.8l.18.24h0l.12.13h0Z"/><path class="cls-2" d="M6,17.18a26.46,26.46,0,0,0,.81-3.24,28.93,28.93,0,0,0,0-3.51c.09.55.2.92.22,1.3a10.94,10.94,0,0,1-.72,5,1.9,1.9,0,0,1-.34.42Z"/><path class="cls-2" d="M6.65,31.63A23.54,23.54,0,0,1,7.1,34c.07.89,0,1.79,0,2.68L7,36.73c-.07-.09-.2-.19-.18-.27a16.23,16.23,0,0,0-.15-4.82Z"/><path class="cls-2" d="M4.51,29.62l.23.24a9,9,0,0,1,1.13,4.68,10.89,10.89,0,0,0-.22-1.62C5.38,32,5,31.16,4.71,30.28,4.63,30.06,4.58,29.84,4.51,29.62Z"/><path class="cls-3" d="M3.33,23.09l.84.66-.73.54C3,23.93,3.11,23.52,3.33,23.09Z"/><path class="cls-3" d="M2.19,23.58l-.74.57-.37-.52a2,2,0,0,1,.56-.37C1.75,23.23,1.93,23.42,2.19,23.58Z"/><path class="cls-2" d="M6.07,36.34,5.55,39.5l-.17,0,.53-3.14Z"/><path class="cls-2" d="M5.38,15.8,5.9,13l.16,0-.51,2.82Z"/><path class="cls-2" d="M5.22,40.05v.42l.34-.08,0,0L5,41l-.18-.11L5.2,40Z"/><path class="cls-2" d="M3,22.52,3.19,22l0,.82,0,0Z"/><path class="cls-2" d="M8.4,35.3l.13-.23h0L8.65,35h0l.12-.12h0l.12-.12h0L9,34.6H9l.22,0,0,0-.83.72Z"/><path class="cls-2" d="M5.68,18l.24-.73.12-.1H6Z"/><path class="cls-2" d="M6.05,30.21l.42.66-.13.07L6,30.22Z"/><path class="cls-2" d="M10.91,33l-.27.46-.2,0,0,0Z"/><path class="cls-2" d="M12.29,13.78l-.51-.5h.3l.13.12h0l.12.12h0l0,.21Z"/><path class="cls-2" d="M7.83,9.23l.48.48,0,0L7.8,9.26Z"/><path class="cls-2" d="M8.31,9.71l.47.47,0,0-.49-.46Z"/><path class="cls-3" d="M2.47,23.81c-.11.05-.21.12-.23.1a.4.4,0,0,1-.12-.22s.14-.12.16-.1S2.39,23.71,2.47,23.81Z"/><path class="cls-2" d="M9.6,33.89h.28L10,34l-.38.22,0,0,0-.34Z"/><path class="cls-2" d="M5.81,29.74l.24.47H6l-.23-.48Z"/><path class="cls-2" d="M5.46,29.5l0-.34.27.33,0,0H5.46Z"/><path class="cls-2" d="M5.81,11.26v.45h-.1l.09-.44Z"/><path class="cls-2" d="M5.2,40l0-.27.08,0-.1.25Z"/><path class="cls-2" d="M11.38,32.59l-.24.24Z"/><path class="cls-2" d="M9.12,12.81l-.24-.24,0,0,.24.24Z"/><path class="cls-2" d="M9.49,34.37l-.24.23,0,0,.24-.24Z"/><path class="cls-2" d="M11.62,15l.24.24Z"/><path class="cls-2" d="M11.14,14.68l.24.12Z"/><path class="cls-2" d="M11.14,32.83l-.23.12Z"/><path class="cls-2" d="M9.38,13l.23.13,0,0L9.35,13Z"/><path class="cls-2" d="M10.91,14.35l.12.22Z"/><path class="cls-2" d="M6.63,31.64a.64.64,0,0,1-.08-.14l0,0,0,.16Z"/><path class="cls-2" d="M5.54,18.16,5.68,18Z"/><path class="cls-2" d="M5.81,29.74l-.13-.23,0,0a2.6,2.6,0,0,0,.1.25Z"/><path class="cls-2" d="M5.33,29l-.18-.24Z"/><path class="cls-2" d="M10,13.5l.13.11,0,0-.12-.12Z"/><path class="cls-2" d="M5.44,29.16,5.32,29Z"/><path class="cls-2" d="M4.51,29.51a.11.11,0,0,1,0,.11l-.08-.05Z"/><path class="cls-3" d="M5.45,29.5h0Z"/><path class="cls-2" d="M9.84,13.39l.12.11,0,0a.69.69,0,0,0-.11-.13Z"/><path class="cls-2" d="M9.82,13.4l-.12-.11,0,0,.12.12Z"/><path class="cls-2" d="M9.61,13.14l.11.13,0,0-.12-.12Z"/><path class="cls-2" d="M11.62,32.35l-.12.12Z"/><path class="cls-2" d="M11.5,32.47l-.12.12Z"/><path class="cls-2" d="M9.26,12.9l.12.11,0,0-.12-.12Z"/><path class="cls-2" d="M9.23,12.92l-.11-.11,0,0,.12.11Z"/><path class="cls-2" d="M10.44,33.43l-.08,0,.05-.08Z"/><path class="cls-2" d="M8.78,12.43l.12.12,0,0-.12-.12Z"/><path class="cls-2" d="M8.76,12.45l-.12-.12,0,0,.12.12Z"/><path class="cls-2" d="M9.61,34.26l-.12.11,0,0,.11-.12Z"/><path class="cls-2" d="M8.64,12.33l-.13-.11,0,0,.11.13Z"/><path class="cls-2" d="M8.51,12.22l0-.08.08,0Z"/><path class="cls-2" d="M11,35l.12-.12,0,0L11,35Z"/><path class="cls-2" d="M10.89,35.06,11,35l0,0-.12.11Z"/><path class="cls-2" d="M10.92,35.09l-.12.12,0,0,.12-.12Z"/><path class="cls-2" d="M10.8,35.21l-.12.11h0l.11-.13Z"/><path class="cls-2" d="M8.42,35.32l-.11.12,0,0,.12-.12Z"/><path class="cls-2" d="M10.68,35.32l-.12.13,0,0,.13-.11Z"/><path class="cls-2" d="M8.31,35.44l-.12.13,0,0,.12-.11Z"/><path class="cls-2" d="M10.41,35.54l.12-.12,0,0-.11.12Z"/><path class="cls-2" d="M8.19,35.57l-.11.12,0,0,.12-.12Z"/><path class="cls-2" d="M10.29,35.65l.12-.11,0,0-.12.12Z"/><path class="cls-2" d="M8.08,35.69l-.09,0,0-.08Z"/><path class="cls-2" d="M10.33,35.69l-.08,0,0-.08Z"/><path class="cls-2" d="M9.61,11l.07.07-.1,0Z"/><path class="cls-2" d="M9.58,11l-.12-.12,0,0,.12.12Z"/><path class="cls-2" d="M8.63,37.31l.11,0-.07.07Z"/><path class="cls-2" d="M8.67,37.35l-.12.11,0,0,.12-.12Z"/><path class="cls-2" d="M8.4,37.55l.11-.12,0,0-.12.12Z"/><path class="cls-2" d="M8.28,37.67l.12-.12,0,0-.12.11Z"/><path class="cls-2" d="M8.31,37.69l-.12.12,0,0,.12-.11Z"/><path class="cls-2" d="M9.38,10.77a.57.57,0,0,0,.11.11l0,0-.12-.12Z"/><path class="cls-2" d="M8,37.9l.12-.12,0,0-.12.12Z"/><path class="cls-2" d="M7.92,38,8,37.9l0,0L8,38.05Z"/><path class="cls-2" d="M8,38.05l-.12.11,0,0L7.92,38Z"/><path class="cls-2" d="M7.83,38.16l-.12.13,0,0,.12-.12Z"/><path class="cls-2" d="M7.57,38.38l.12-.12,0,0-.11.11Z"/><path class="cls-2" d="M7.6,38.4l-.12.12,0,0,.12-.12Z"/><path class="cls-2" d="M12,15.4l.12.12Z"/><path class="cls-2" d="M7.48,38.52l-.12.12,0,0,.12-.12Z"/><path class="cls-2" d="M7.21,38.73l.12-.11,0,0-.12.12Z"/><path class="cls-2" d="M7.24,38.76l-.12.12,0,0,.12-.12Z"/><path class="cls-2" d="M7.12,38.88,7,39l0,0,.12-.12Z"/><path class="cls-2" d="M7,39l-.12.11,0,0L7,39Z"/><path class="cls-2" d="M9.25,10.65l.13.12,0,0-.11-.12Z"/><path class="cls-2" d="M6.74,39.21l.12-.12,0,0-.11.12Z"/><path class="cls-2" d="M6.62,39.32l.12-.11,0,0-.12.12Z"/><path class="cls-2" d="M6.5,39.44l.12-.12,0,0-.12.12Z"/><path class="cls-2" d="M6.38,39.56l.12-.12,0,0-.12.12Z"/><path class="cls-2" d="M6.41,39.59l-.12.12,0,0,.13-.12Z"/><path class="cls-2" d="M6.29,39.71l-.12.12,0,0,.12-.12Z"/><path class="cls-2" d="M11.85,15.28l.12.12Z"/><path class="cls-2" d="M9.14,10.53l.11.12,0,0-.13-.11Z"/><path class="cls-2" d="M6,39.92l.12-.12,0,0-.12.11Z"/><path class="cls-2" d="M5.91,40,6,39.92l0,0-.12.12Z"/><path class="cls-2" d="M11,14.56l.12.12Z"/><path class="cls-2" d="M5.79,40.15,5.91,40l0,0-.11.12Z"/><path class="cls-2" d="M9.1,10.57,9,10.45l0,0,.12.12Z"/><path class="cls-2" d="M5.67,40.27l.12-.12,0,0-.12.12Z"/><path class="cls-2" d="M5.7,40.3l-.12.11,0,0,.11-.12Z"/><path class="cls-2" d="M8.9,10.3l.12.11,0,0-.11-.13Z"/><path class="cls-2" d="M11.5,14.92l.12.12Z"/><path class="cls-2" d="M8.78,10.18l.12.12,0,0-.11-.12Z"/><path class="cls-2" d="M11.38,14.8l.12.13Z"/><path class="cls-3" d="M15.63,5.68c.87-.56,1.75-1.11,2.61-1.69s1.6-1.14,2.4-1.72c.14-.11.23-.28.37-.38.75-.58,1.2-.43,1.51.49l.11.23h0l-.06.23,0,0L21,3.31c-.56.36-1.14.72-1.7,1.1-1.14.74-2.26,1.49-3.4,2.22a1.81,1.81,0,0,1-.65.14c-.09-.36-.16-.6-.22-.83Z"/><path class="cls-3" d="M24.92,3l-.12-.12c.17-.46.35-.91.56-1.47a21.15,21.15,0,0,1,4.38,3.15h.11l.57.46c-.5,0-.5,0-.58.74-.77-.57-1.47-1.14-2.22-1.63A5.25,5.25,0,0,0,24.92,3Z"/><path class="cls-2" d="M40.75,5.8c-.53.11-1.07.18-1.59.33A12.2,12.2,0,0,1,32,5.82c-.17-.05-.31-.23-.46-.35l0,0c1,.26,1.95.57,2.95.76A9.34,9.34,0,0,0,38.78,6c.84-.23,1.68-.5,2.59-.66l-.59.44Z"/><path class="cls-2" d="M15.63,5.68l-.56.26c-1.24.19-2.47.43-3.71.56a10.56,10.56,0,0,1-4.54-.82L6.89,6l0,0-.65-.7c1.16.3,2.15.61,3.17.81a11,11,0,0,0,5.79-.48A1.41,1.41,0,0,1,15.63,5.68Z"/><path class="cls-2" d="M37.32,7.47a15.1,15.1,0,0,1-4.78-.37c-.27-.09-.53-.22-.8-.33l0,0a25.34,25.34,0,0,0,2.83.48,26,26,0,0,0,2.92-.09l.38,0-.54.44,0,0s0-.07,0-.11l0,0Z"/><path class="cls-2" d="M10.18,7.72l-.43-.48H14v.17l-2.31.06c-.37,0-.75,0-1.12,0-.12,0-.23.13-.35.2Z"/><path class="cls-3" d="M24.55,3a6,6,0,0,1-.77.74c-.09.07-.38-.06-.52-.17A1.28,1.28,0,0,1,23,3.1Z"/><path class="cls-3" d="M23.48,1.79a2.7,2.7,0,0,1,0-.7,1,1,0,0,1,.48,0,4.17,4.17,0,0,1,0,.71Z"/><path class="cls-2" d="M21,3.31l1.5-.49Z"/><path class="cls-2" d="M30.42,5l-.57-.46,1,.58h0Z"/><path class="cls-3" d="M23.69,2c.1.13.23.21.22.28s-.13.18-.22.22-.18-.11-.18-.17A1.11,1.11,0,0,1,23.69,2Z"/><path class="cls-2" d="M34.71,11.61l.11-.23.47-.26,0,0Z"/><path class="cls-2" d="M38.41,8.09l-.47.46,0,0,.47-.47Z"/><path class="cls-2" d="M34.84,10.08l-.45.37,0,0v-.22h0L34.8,10Z"/><path class="cls-2" d="M31.74,6.77l-.49-.13.05-.14.46.24Z"/><path class="cls-2" d="M10.55,9.48l.36.35,0,0-.35-.36Z"/><path class="cls-2" d="M35.43,9.24l.16,0-.27.33,0,0,.14-.34Z"/><path class="cls-2" d="M6.89,6l.36.35,0,0-.36-.35Z"/><path class="cls-2" d="M35.2,9.72l-.36.36,0,0,0-.21h0L35,9.71h0l.22,0Z"/><path class="cls-2" d="M23.48,1.79h0Z"/><path class="cls-2" d="M34.39,10.45l-.25.23,0,0,0-.22h0l.23,0Z"/><path class="cls-2" d="M11.83,9.26,11.6,9l0,0,.22,0h0l0,.23Z"/><path class="cls-2" d="M37.35,7.61l-.25.23,0,0,.23-.24Z"/><path class="cls-2" d="M10.3,9.37l-.24-.23,0,0,.24.24Z"/><path class="cls-2" d="M10.53,9.5l-.23-.13,0,0,.22.14Z"/><path class="cls-2" d="M22.63,2.61l-.11-.23Z"/><path class="cls-2" d="M22.56,2.84l.06-.23Z"/><path class="cls-2" d="M30.82,5.09l.24.1,0,0-.23-.12Z"/><path class="cls-2" d="M31.27,5.34,31,5.22l0,0,.24.12Z"/><path class="cls-2" d="M31.3,5.31l.23.13,0,0-.23-.13Z"/><path class="cls-2" d="M35.43,10.9l.22-.14,0,0-.23.12Z"/><path class="cls-2" d="M35.29,11.12l.14-.22,0,0-.13.23Z"/><path class="cls-2" d="M38.64,8l-.23.14,0,0,.24-.12Z"/><path class="cls-2" d="M7.25,6.37l.22.14,0,0-.23-.12Z"/><path class="cls-2" d="M39.11,7.47,39,7.6l0,0a.69.69,0,0,0,.13-.11Z"/><path class="cls-2" d="M39.23,7.36l-.12.11,0,0,.12-.12Z"/><path class="cls-2" d="M8.3,7.33l0,.08-.08,0Z"/><path class="cls-2" d="M39.36,7.25l-.13.11,0,0,.11-.13Z"/><path class="cls-2" d="M39,7.6l-.12.12,0,0L39,7.56Z"/><path class="cls-2" d="M8.27,7.37l-.12-.12,0,0,.11.12Z"/><path class="cls-2" d="M10.29,7.84l-.11-.12,0,0,.12.12Z"/><path class="cls-2" d="M38.73,7.81l.12-.13,0,0-.12.11Z"/><path class="cls-2" d="M9.94,9,9.82,8.9l0,0L10,9Z"/><path class="cls-2" d="M10.42,7.94l-.13-.1,0,0,.11.12Z"/><path class="cls-2" d="M37,7.92l.13-.11,0,0L37,8Z"/><path class="cls-2" d="M38.62,7.93l.11-.12,0,0L38.64,8Z"/><path class="cls-2" d="M36.74,8.19l-.11.12,0,0,.12-.11Z"/><path class="cls-2" d="M39.32,7.2l.11-.12,0,0-.12.12Z"/><path class="cls-2" d="M8.07,7.09l.12.12,0,0L8,7.13Z"/><path class="cls-2" d="M39.43,7.08l.11,0-.06.07Z"/><path class="cls-2" d="M8,7.13,7.92,7,8,7l.12.11Z"/><path class="cls-2" d="M36.85,7.94l.1,0,0,0-.12.11,0,0a.41.41,0,0,1,0-.11Z"/><path class="cls-2" d="M7.92,7a.69.69,0,0,1-.11-.13h0L8,7Z"/><path class="cls-2" d="M7.71,6.75l.11.12h0l-.13-.11Z"/><path class="cls-2" d="M7.68,6.77l-.12-.12,0,0,.12.12Z"/><path class="cls-2" d="M36.47,8.39l.13-.11,0,0-.12.12Z"/><path class="cls-2" d="M7.47,6.51l.12.12,0,0-.11-.12Z"/><path class="cls-2" d="M34.47,11.84l.12-.12Z"/><path class="cls-2" d="M34.59,11.72l.12-.12Z"/><path class="cls-2" d="M36.51,8.43l-.1,0,.06-.07Z"/><path class="cls-2" d="M37.94,8.55l-.12.12,0,0,.12-.12Z"/><path class="cls-2" d="M40.54,6.06l-.06.07,0-.1Z"/><path class="cls-2" d="M11.86,10.77l.07.07-.1,0Z"/><path class="cls-2" d="M36.86,8.07l-.12.12,0,0,.12-.12Z"/><path class="cls-2" d="M40.51,6l.12-.12,0,0-.12.12Z"/><path class="cls-2" d="M40.78,5.82l-.12.12,0,0,.12-.11Z"/><path class="cls-2" d="M35.8,10.68l-.12.12,0,0,.12-.11Z"/><path class="cls-2" d="M34.14,10.68l-.08.05,0-.08Z"/><path class="cls-2" d="M37.82,8.67l-.12.12,0,0,.12-.12Z"/><path class="cls-2" d="M11.83,10.8l-.11-.13h0l.13.11Z"/><path class="cls-2" d="M35.92,10.56l-.12.12,0,0,.12-.12Z"/><path class="cls-2" d="M11.72,10.67l-.12-.12h0l.12.12Z"/><path class="cls-2" d="M9.82,8.9l-.05-.08.08,0Z"/><path class="cls-2" d="M35.89,10.53l.11-.12,0,0-.12.12Z"/><path class="cls-2" d="M11.6,10.55l-.12-.11,0,0,.11.12Z"/><path class="cls-2" d="M36,10.41l.12-.12,0,0-.12.11Z"/><path class="cls-2" d="M11.38,10.3l.12.12,0,0-.12-.12Z"/><path class="cls-2" d="M29.85,4.51h-.11l.06-.09Z"/><path class="cls-2" d="M36.12,10.29l.08,0,0,.09Z"/><path class="cls-2" d="M11.26,10.19l.12.11,0,0-.11-.13Z"/><path class="cls-2" d="M11.25,10.19l-.13-.11h0l.12.12Z"/><path class="cls-2" d="M11,9.94l.11.13h0L11,10Z"/><path class="cls-2" d="M10.91,9.83l.12.11,0,0-.12-.11Z"/><path class="cls-2" d="M35.32,9.61l-.12.11,0,0,.12-.11Z"/><path class="cls-2" d="M11.87,9.23l0,.08-.08-.05Z"/><path class="cls-2" d="M37.34,9.14l-.07,0,0-.08Z"/><path class="cls-2" d="M37.47,9a.69.69,0,0,0-.13.11l0,0L37.43,9Z"/><path class="cls-2" d="M37.7,8.79l-.12.12,0,0,.12-.11Z"/><path class="cls-2" d="M10,9l.11.12,0,0L9.94,9Z"/><path class="cls-2" d="M37.58,8.91,37.47,9l0,0,.12-.12Z"/><path class="cls-2" d="M11.6,9l-.12-.12,0,0,.12.12Z"/><path class="cls-3" d="M29.84,41.75l.41.87L27,45.05l-1.08.79c-.34.24-.6.26-.73-.23a8,8,0,0,0-.39-1C26.81,44.2,28.24,42.83,29.84,41.75Z"/><path class="cls-3" d="M17.6,42.8a.9.9,0,0,0-.14-1.14c.55.38,1.08.8,1.65,1.15,1,.64,2.09,1.27,3.16,1.85.49.27.25.61.11.86s-.49.39-.64.32A13.46,13.46,0,0,1,18,43.13a.08.08,0,0,0-.1,0h0Z"/><path class="cls-2" d="M40.44,41.8a12.87,12.87,0,0,0-8.51,0C33.15,40.65,38.71,40.62,40.44,41.8Z"/><path class="cls-2" d="M7.21,41.69A15.75,15.75,0,0,1,9.37,41a12.38,12.38,0,0,1,5.31.33l.32.12c-.17.06-.24.11-.29.09a12.78,12.78,0,0,0-7.35.15H7.24Z"/><path class="cls-2" d="M16.47,40.76v.3a11,11,0,0,0-6.71-.75l0-.14a1.52,1.52,0,0,1,.4-.16,11.42,11.42,0,0,1,6,.71,1.3,1.3,0,0,0,.4,0Z"/><path class="cls-2" d="M32.46,40.4A23.82,23.82,0,0,1,35,40a22.79,22.79,0,0,1,2.48,0v0l.34.21,0,.13a11.56,11.56,0,0,0-1.43-.09c-1,0-2.06.1-3.08.16-.26,0-.51.05-.76.08Z"/><path class="cls-3" d="M23.58,45.49a3.28,3.28,0,0,1,.37.22c.08,0,.21.14.21.2a.92.92,0,0,1-.18.51.49.49,0,0,1-.47.07.71.71,0,0,1-.29-.43,1.79,1.79,0,0,1,0-.52Z"/><path class="cls-3" d="M23,44.3l.27-.39c.42-.59.71-.54,1,.17Z"/><path class="cls-2" d="M23.58,45.49l-.38,0-.21,0h0a4.72,4.72,0,0,1,.51-.65.45.45,0,0,1,.45,0c.13.11.48.32,0,.51l-.3-.21-.1.34Z"/><path class="cls-2" d="M8.92,39.94c.18.21.41.36.39.47s-.23.3-.35.45c-.13-.13-.34-.25-.36-.4S8.76,40.17,8.92,39.94Z"/><path class="cls-2" d="M38.49,41c-.15-.26-.32-.43-.31-.58s.24-.22.38-.34c.1.13.29.26.28.38S38.66,40.74,38.49,41Z"/><path class="cls-2" d="M38.86,39.58l.12.11.21.15,0,.21-1.56-1.41,0,0,.22,0,.11.12.12.12.12.11.48.48Z"/><path class="cls-2" d="M32.47,40.41,31.05,41h0l1.43-.59Z"/><path class="cls-2" d="M6.76,41.59l-.38.64L6.15,42l.59-.47Z"/><path class="cls-2" d="M16,42l-.88-.22.07-.19.82.39Z"/><path class="cls-2" d="M16.82,42.43,16,42v0l.83.47Z"/><path class="cls-2" d="M41.2,42.13,40.7,42l.06-.19.5.19Z"/><path class="cls-2" d="M9.35,39l.58-.48,0,0L9.37,39Z"/><path class="cls-3" d="M23.57,45.5l.1-.34.3.21Z"/><path class="cls-2" d="M17.6,42.8l.3.32-.49-.34h0Z"/><path class="cls-2" d="M35.68,36.72l.47.36,0,0-.47-.37Z"/><path class="cls-2" d="M22.87,45.62l0,.58-.1,0,.13-.56Z"/><path class="cls-2" d="M39.22,40.05l.2,0c0,.1.11.2.17.3l0,0Z"/><path class="cls-2" d="M30.35,41.37l-.24.29-.1-.11.31-.21Z"/><path class="cls-2" d="M12.82,35.69l-.19.31-.17,0,0,0Z"/><path class="cls-2" d="M30.82,41.12l-.47.25,0,0,.48-.24Z"/><path class="cls-2" d="M34.61,37.19l.25.23,0,0-.21,0h0l0-.22Z"/><path class="cls-2" d="M12.46,36l-.18.17L12.21,36h0l.23,0Z"/><path class="cls-2" d="M7.24,41.72,7,41.83l0-.09.26-.05Z"/><path class="cls-2" d="M9.14,39.23l-.24.24,0,0,.25-.24Z"/><path class="cls-2" d="M35.45,36.47a2.73,2.73,0,0,1,.23.25h0l-.23-.23Z"/><path class="cls-2" d="M17.19,42.65l.23.12h0l-.25-.1Z"/><path class="cls-2" d="M17,42.53l.24.12,0,0a1.71,1.71,0,0,0-.23-.13Z"/><path class="cls-2" d="M31.05,41l-.23.12,0,0L31,41Z"/><path class="cls-2" d="M11.24,37.19l.07,0-.05.07Z"/><path class="cls-2" d="M34.58,37.22l0-.08.08,0Z"/><path class="cls-2" d="M36.15,37.08l.12.12,0,0-.12-.12Z"/><path class="cls-2" d="M11.26,37.21l-.11.13,0,0,.12-.11Z"/><path class="cls-2" d="M36.37,37.34l-.12-.12,0,0,.12.12Z"/><path class="cls-2" d="M11,37.42l.12-.12,0,0-.11.12Z"/><path class="cls-2" d="M36.48,37.46l-.11-.12,0,0,.12.11Z"/><path class="cls-2" d="M11,37.46l-.13.12,0,0,.12-.12Z"/><path class="cls-2" d="M36.51,37.43l.11.12,0,0-.12-.11Z"/><path class="cls-2" d="M10.91,37.58l-.12.11,0,0,.12-.12Z"/><path class="cls-2" d="M36.62,37.55l.12.12,0,0-.12-.12Z"/><path class="cls-2" d="M10.64,37.78l.12-.12,0,0-.12.12Z"/><path class="cls-2" d="M36.83,37.82l-.11-.13,0,0,.13.11Z"/><path class="cls-2" d="M10.52,37.89l.12-.11,0,0-.11.12Z"/><path class="cls-2" d="M36.87,37.78l.12.12,0,0-.12-.12Z"/><path class="cls-2" d="M10.41,38l.11-.12,0,0-.12.12Z"/><path class="cls-2" d="M37,37.9l.12.12,0,0L37,37.94Z"/><path class="cls-2" d="M10.44,38.05l-.13.11,0,0,.12-.13Z"/><path class="cls-2" d="M37.11,38l0,.08-.08,0Z"/><path class="cls-2" d="M10.17,38.26l.12-.12,0,0-.12.12Z"/><path class="cls-2" d="M10.05,38.37l.12-.11,0,0-.11.12Z"/><path class="cls-2" d="M9.93,38.49l.12-.12,0,0-.12.12Z"/><path class="cls-2" d="M37.66,38.64l0-.08.08,0Z"/><path class="cls-2" d="M9.37,39l-.12.11,0,0L9.35,39Z"/><path class="cls-2" d="M9.25,39.11l-.12.12v0l.11-.12Z"/><path class="cls-2" d="M8.76,39.56l.11-.11,0,0-.12.12Z"/><path class="cls-2" d="M37.08,39.59,37,39.51l.08.05Z"/><path class="cls-2" d="M8.78,39.59l-.12.12,0,0,.12-.12Z"/><path class="cls-2" d="M37.1,39.56l.12.12,0,0-.11-.12Z"/><path class="cls-2" d="M8.51,39.8l.13-.12,0,0-.11.12Z"/><path class="cls-2" d="M37.31,39.82l-.12-.11,0,0,.12.12Z"/><path class="cls-2" d="M8.55,39.83l-.08.05,0-.08Z"/><path class="cls-2" d="M37.34,39.8l.11.12v0l-.12-.12Z"/><path class="cls-2" d="M39.68,40.54l-.12-.12,0,0,.12.12Z"/><path class="cls-2" d="M39.79,40.66l-.11-.12,0,0,.12.12Z"/><path class="cls-2" d="M39.83,40.63l.12.11,0,0-.12-.12Z"/><path class="cls-2" d="M7.6,40.78l-.13.11,0,0,.11-.12Z"/><path class="cls-2" d="M40,40.74l0,.09-.09,0Z"/><path class="cls-2" d="M7.33,41l.12-.12,0,0L7.35,41Z"/><path class="cls-2" d="M7.21,41.09,7.33,41l0,0-.11.13Z"/><path class="cls-2" d="M7.24,41.13l-.12.12,0,0,.13-.12Z"/><path class="cls-2" d="M7.12,41.25,7,41.36l0,0,.11-.12Z"/><path class="cls-2" d="M7,41.36l-.12.12,0,0L7,41.33Z"/><path class="cls-2" d="M6.88,41.48l-.12.11,0,0,.12-.11Z"/><path class="cls-2" d="M16.83,42.41l.12.12,0,0-.11-.12Z"/><path class="cls-2" d="M17.9,43.12a.08.08,0,0,1,.1,0l-.06.07Z"/><path class="cls-2" d="M22.87,45.62,23,45.5h0l-.12.11Z"/><path class="cls-1" d="M35.29,9.58l-.12.11-.22,0,.48-.48Z"/><path class="cls-1" d="M34.84,9.83l0,.21-.45.15Z"/><path class="cls-1" d="M11.63,9l-.12-.12a2.53,2.53,0,0,1-.13-.22h0l.48.36Z"/><path class="cls-1" d="M11.38,8.65l-.3-.16.15-.13.14.29Z"/><path class="cls-1" d="M34.35,10.41l-.23,0,.24-.24Z"/><path class="cls-1" d="M10.66,7.94l.16,0-.16,0Z"/><path class="cls-1" d="M35,9.71l-.13.13Z"/><path class="cls-1" d="M25.26,38.13c-.24.41-.47.83-.72,1.23-.14.24-.32.46-.48.69h0l-.11.11h0l-1.51,1.2-.3.23-.3-.08c.4-.4.83-.77,1.19-1.19.53-.6,1-1.26,1.5-1.87a3.25,3.25,0,0,1,.63-.45v0l.12.12Z"/><path class="cls-3" d="M21.32,37.32c.41-.08.58-.71,1.13-.51a1.15,1.15,0,0,1,.3-.39l-.14,1.49-.57.48-.22.09c-.12-.23-.25-.45-.36-.69S21.37,37.48,21.32,37.32Z"/><path class="cls-3" d="M25.14,38c-.18-.26-.55-.41-.29-.87s.43-.55.81-.25a11,11,0,0,1,.89.91c-.52,0-.87.13-.85.72l-.44-.39v0L25.13,38Z"/><path class="cls-1" d="M22,38.39l.57-.48c.57.43.62,1.11,1,1.64l-.25.18Z"/><path class="cls-3" d="M21.82,41.52l.3.08a13.5,13.5,0,0,1-.66,1.25c-.09.14-.37.16-.56.23,0-.2-.09-.47,0-.6A10.43,10.43,0,0,1,21.82,41.52Z"/><path class="cls-1" d="M30.94,33.87l1.14.88c.18.15.35.32.52.47l.35.32h0l.23.24h0l.12.12h0l.12.13v0c0,.11,0,.22-.11.54Z"/><path class="cls-1" d="M21.32,37.32c.05.16.08.32.14.47s.24.46.36.69c-.14.28-.31.39-.58.13s-.6-.51-.3-.94A2.55,2.55,0,0,1,21.32,37.32Z"/><path class="cls-1" d="M25.7,38.52c0-.59.33-.75.85-.72.26.54-.26.69-.51,1Z"/><path class="cls-1" d="M24.06,40.05c.56.3,1.28,1.07,1.26,1.56l-1.39-1.44h0l.11-.11Z"/><path class="cls-3" d="M26.18,42.49l.53.16-.09.26-.52-.2Z"/><path class="cls-3" d="M20.93,38.9l.41.26-.07.13L20.83,39Z"/><path class="cls-3" d="M20.83,39l-.43-.44.12-.07c.14.13.27.27.41.41Z"/><path class="cls-3" d="M20.4,38.56l-.14-.36.13-.05.13.34Z"/><path class="cls-1" d="M35.55,38.27l-.16,0,0,0,.13.09Z"/><path class="cls-1" d="M35.07,37.8l.1.13-.05,0,0-.16Z"/><path class="cls-1" d="M34.6,37.44l.21,0Z"/><path class="cls-1" d="M35.07,37.8l0,0h0a.05.05,0,0,1,0,0Z"/><path class="cls-1" d="M35.66,38.39l-.11-.12h0l.12.12Z"/><path class="cls-1" d="M35.78,38.51l-.12-.12h0l.11.12Z"/><path class="cls-1" d="M35.78,38.51l.12.12h0l-.12-.12Z"/><path class="cls-1" d="M35.17,15.67l.47-.42.26,0h0l-.84.71h0Z"/><path class="cls-1" d="M35,16.11l-.51.73-.14-.12.65-.6Z"/><path class="cls-1" d="M35.9,15.28l.13-.09,0,.05-.16,0Z"/><path class="cls-1" d="M35,16.12l.12-.12h0l-.12.11Z"/><path class="cls-1" d="M9.57,34.22l-.11.12-.24.24L9,34.6l.6-.72Z"/><path class="cls-1" d="M9,34.6l-.12.12Z"/><path class="cls-1" d="M8.89,34.72l-.12.12Z"/><path class="cls-1" d="M8.77,34.84,8.65,35Z"/><path class="cls-1" d="M8.65,35l-.12.12Z"/><path class="cls-2" d="M23.7,14.09a9.57,9.57,0,0,1,9.54,9.55,9.54,9.54,0,1,1-19.08,0A9.52,9.52,0,0,1,23.7,14.09ZM20.28,31.65a1.91,1.91,0,0,0,2,.69l1-.32,0-.17c-1.08.06-2.05-.84-3.21-.37,0,.07,0,.12.07.13Zm6.8-15.07a3.47,3.47,0,0,0-.67-.33,9.63,9.63,0,0,0-3.13-.34A6.19,6.19,0,0,0,19.82,17a3.67,3.67,0,0,0-1.36,1.81c.3,0,.52,0,.73,0a1.84,1.84,0,0,0,1.8-.69A3.52,3.52,0,0,1,23.61,17a3.56,3.56,0,0,1,3.13,1.88,2.77,2.77,0,0,1,.15,2.4,1.73,1.73,0,0,0,1.37-2.44c-.14-.35-.32-.62.24-.85s.74-1.09.15-1.73C28.24,16.82,27.66,16.71,27.08,16.58Zm-3.54,5.07,1,0c.38,0,.51-.2.56-.53.14-.89.15-.89,1-.91l.64,0c-.23-.36.1-.95-.54-1a9.13,9.13,0,0,0-1.28,0c-.72,0-1.45,0-2.18-.06-1.32,0-2.64,0-4,0-.8,0-1.07-.19-1.15-1h-.24a1,1,0,0,0-1,.61c-.08.23.08.52.06.78a3.56,3.56,0,0,1-.19.58A3.13,3.13,0,0,0,16,21.22a.83.83,0,0,0,.86.79c.21-1,.29-1.43,1.73-1.58.88-.09,1.77-.07,2.65-.09,1.06,0,1.06,0,1.15,1a1.25,1.25,0,0,0,.06.18Zm-3.16,6.6c-.06-.14-.11-.29-.17-.43-.72-1.55-.86-3.05.38-4.46a2.88,2.88,0,0,1-.94-2.67,6,6,0,0,0-1.37.21c-.35.14-.84.44-.89.73a1.72,1.72,0,0,1-.68,1.07c-.22.19-.46.35-.69.53l.21.1c.24.74.49,1.48.71,2.23a9.07,9.07,0,0,0,1.51,3.24,6.43,6.43,0,0,0,4.43,2.67,4.85,4.85,0,0,0,2-.12,18.27,18.27,0,0,0,2.29-1,1.71,1.71,0,0,1,1.68.06c.08,0,.21,0,.31,0,.12-.93.1-1-1-1.26A11.43,11.43,0,0,0,28,27.4a1.78,1.78,0,0,0-1.37-.95,3.43,3.43,0,0,1,.11.46,2.91,2.91,0,0,1-3.63,3.33A4.47,4.47,0,0,1,20.38,28.25Zm4.78.19c-.33-.45-.74-.78-.8-1.16a9,9,0,0,1,.06-1.86,2.94,2.94,0,0,0,0-.51c0-.52-.15-1.05-.16-1.57a2.11,2.11,0,0,1,.17-.9,4.44,4.44,0,0,1,1.35.22c.16,0,.24.3.36.46l.18-.09L26,22.12c.4-.48.4-.48.15-.71-.2.16-.39.44-.58.44-1.42,0-2.88.42-4.36-.45l.5,1.1a9,9,0,0,1,1.07-.12c.15,0,.44.15.44.24,0,.7-.05,1.4-.08,2.11a2.62,2.62,0,0,0,0,.74c.31,1.17.31,2.09-.64,2.89a7.25,7.25,0,0,0,.93-.05,4.82,4.82,0,0,1,.76,0C24.49,28.34,24.83,28.4,25.16,28.44ZM30,18.27l.05.18c-.29.22-.6.43-.89.67a.87.87,0,0,0-.31.35,6.07,6.07,0,0,0-.16.85c1.49.41,1.67.56,2,1.68a1.1,1.1,0,0,0,.61-1.71c-.13-.2-.32-.47-.28-.66C31.26,18.54,31.06,18.25,30,18.27Zm-5.12,9.31c.32-.62.63-1.17.88-1.74a1,1,0,0,0,0-.57c-.18-.62-.38-1.22-.57-1.83l-.21-.7-.17,0a2.82,2.82,0,0,0,0,1.9,1.32,1.32,0,0,1,0,.81A2.47,2.47,0,0,0,24.84,27.58Zm-3.23-2,1,2a2.36,2.36,0,0,0,.08-2.19,1,1,0,0,1-.08-.47c.07-.62.17-1.23.23-1.84,0-.1-.12-.21-.19-.31-.08.1-.24.21-.24.31A4.06,4.06,0,0,1,21.61,25.54Zm.71,4.1a4.39,4.39,0,0,0,2.82,0l-.2-.75a3.62,3.62,0,0,0-.9-.25,4.72,4.72,0,0,0-1.4.23C22.47,28.93,22.44,29.33,22.32,29.64ZM24.27,32a2.18,2.18,0,0,0,3.19-.51,3.32,3.32,0,0,0-1.12-.2A18.71,18.71,0,0,0,24.27,32Z"/><path class="cls-1" d="M14,32l.46-.1-2,2.23-.11-.48h0l.23-.23h0l.24-.24h0l.24-.23h0l.23-.23h0l.24-.23h0L14,32Z"/><path class="cls-1" d="M12.43,36l-.23,0,.72-.71h0l-.12.37h0Z"/><path class="cls-1" d="M13,35.19l.27-.38.11,0v.35H13Z"/><path class="cls-1" d="M11.84,34.11l.2.16,0,0-.15-.19Z"/><path class="cls-1" d="M14.58,33.77l-.12.12h0l.12-.12Z"/><path class="cls-1" d="M14.34,34l.11-.12h0l-.12.12Z"/><path class="cls-1" d="M14.22,34.12l.12-.11h0l-.12.12Z"/><path class="cls-1" d="M14.1,34.24l.12-.12h0l-.12.11Z"/><path class="cls-1" d="M14.1,34.24l-.12.12h0l.12-.12Z"/><path class="cls-1" d="M14,34.36l-.06,0s0,0,0,0l0,0Z"/><path class="cls-1" d="M12.92,35.31l.11-.12h0l-.11.12Z"/><path class="cls-1" d="M12.48,11.56l1.17.92.24.5C13.33,12.6,12.7,12.29,12.48,11.56Z"/><path class="cls-1" d="M12.35,13.72l0-.21.24.24Z"/><path class="cls-1" d="M14.34,13.39l-.22-.09.12-.14.1.23Z"/><path class="cls-1" d="M14.81,13.86l-.12-.11h0l.12.12Z"/><path class="cls-1" d="M12.68,13.87l-.12-.13Z"/><path class="cls-1" d="M12.8,14l-.12-.12Z"/><path class="cls-1" d="M14.69,13.75l-.12-.12h0l.12.11Z"/><path class="cls-1" d="M14.93,14l-.12-.12h0l.12.12Z"/><path class="cls-1" d="M14.57,13.63l-.11-.12h0l.11.12Z"/><path class="cls-1" d="M15.05,14.1,14.93,14h0l.12.12Z"/><path class="cls-1" d="M14.46,13.51l-.12-.12h0l.12.12Z"/><path class="cls-1" d="M12.32,13.51l-.12-.12Z"/><path class="cls-1" d="M15.05,14.1l.12.12h0l-.11-.12Z"/><path class="cls-1" d="M12.21,13.39l-.13-.12Z"/><path class="cls-1" d="M15.28,14.34l-.12-.12h0l.12.12Z"/><path class="cls-1" d="M34.13,35,34,34.83Z"/><path class="cls-1" d="M34.25,35.07,34.12,35Z"/><path class="cls-1" d="M34.36,35.19l-.12-.12Z"/><path class="cls-1" d="M34.48,35.31l-.12-.12Z"/><path class="cls-1" d="M34.6,35.43l-.12-.12Z"/><path class="cls-1" d="M34.72,35.55l-.12-.12Z"/><path class="cls-1" d="M34.84,35.67l-.12-.12Z"/><path class="cls-1" d="M35,35.79l-.13-.13Z"/><path class="cls-1" d="M35.07,35.9,35,35.78Z"/><path class="cls-1" d="M35.19,36l-.12-.12Z"/><path class="cls-1" d="M33.41,13.15l.12-.12Z"/><path class="cls-1" d="M33.53,13l.12-.13Z"/><path class="cls-1" d="M33.65,12.92l.12-.12Z"/><path class="cls-1" d="M33.77,12.8l.12-.12Z"/><path class="cls-1" d="M33.89,12.68l.12-.12Z"/><path class="cls-1" d="M34,12.56l.13-.12Z"/><path class="cls-1" d="M34.12,12.44l.13-.12Z"/><path class="cls-1" d="M34.24,12.32l.12-.12Z"/><path class="cls-1" d="M34.36,12.21l.12-.13Z"/><path class="cls-2" d="M14,32l-.46.46Z"/><path class="cls-2" d="M13.5,32.47l-.24.23Z"/><path class="cls-2" d="M13.26,32.7l-.23.23Z"/><path class="cls-2" d="M13,32.94l-.24.23Z"/><path class="cls-2" d="M12.79,33.17l-.24.24Z"/><path class="cls-2" d="M12.55,33.41l-.23.23Z"/><path class="cls-2" d="M12.92,35.31l.11-.12h.37l-.6.48Z"/><path class="cls-2" d="M33,35.54l-.35-.32Z"/><path class="cls-2" d="M33.18,35.78,33,35.54Z"/><path class="cls-2" d="M33.3,35.9l-.12-.12Z"/><path class="cls-2" d="M33.42,36l-.12-.13Z"/><path class="cls-3" d="M45,23.57l.31.2-.22.16c0-.12-.07-.23-.11-.35Z"/><path class="cls-1" d="M37.32,7.47l0-.06,0,0Z"/><path class="cls-2" d="M25.13,38l.12.12Z"/><path class="cls-2" d="M24.05,40.05l-.11.11Z"/><path class="cls-1" d="M18.45,28.8a9.07,9.07,0,0,1-1.51-3.24c-.22-.75-.47-1.49-.71-2.23l-.21-.1c.23-.18.47-.34.69-.53a1.72,1.72,0,0,0,.68-1.07c.05-.29.54-.59.89-.73a6,6,0,0,1,1.37-.21,2.88,2.88,0,0,0,.94,2.67c-1.24,1.41-1.1,2.91-.38,4.46.06.14.11.29.17.43-.13.1-.24.26-.39.29C19.48,28.65,19,28.72,18.45,28.8Z"/><path class="cls-3" d="M18.45,28.8c.51-.08,1-.15,1.54-.26.15,0,.26-.19.39-.29a4.47,4.47,0,0,0,2.74,2,2.91,2.91,0,0,0,3.63-3.33,3.43,3.43,0,0,0-.11-.46A1.78,1.78,0,0,1,28,27.4a11.43,11.43,0,0,1,.18,1.8c1.11.29,1.13.33,1,1.26-.1,0-.23,0-.31,0a1.71,1.71,0,0,0-1.68-.06,18.27,18.27,0,0,1-2.29,1,4.85,4.85,0,0,1-2,.12A6.43,6.43,0,0,1,18.45,28.8Z"/><path class="cls-3" d="M23.54,21.65l-1.07-.14a1.25,1.25,0,0,1-.06-.18c-.09-1-.09-1-1.15-1-.88,0-1.77,0-2.65.09-1.44.15-1.52.56-1.73,1.58a.83.83,0,0,1-.86-.79,3.13,3.13,0,0,1,.25-1.09,3.56,3.56,0,0,0,.19-.58c0-.26-.14-.55-.06-.78a1,1,0,0,1,1-.61h.24c.08.79.35,1,1.15,1,1.32,0,2.64,0,4,0,.73,0,1.46,0,2.18.06a2.74,2.74,0,0,1-.5.07c-.43,0-.68.07-.67.6a5.64,5.64,0,0,1-.23,1.05A4.21,4.21,0,0,0,23.54,21.65Z"/><path class="cls-1" d="M26.74,18.84A3.56,3.56,0,0,0,23.61,17,3.52,3.52,0,0,0,21,18.14a1.84,1.84,0,0,1-1.8.69c-.21,0-.43,0-.73,0A3.67,3.67,0,0,1,19.82,17a6.19,6.19,0,0,1,3.46-1.11,9.63,9.63,0,0,1,3.13.34,3.47,3.47,0,0,1,.67.33c0,.66-.06,1.31-.11,2C27,18.65,26.82,18.75,26.74,18.84Z"/><path class="cls-3" d="M25.16,28.44c-.33,0-.67-.1-1-.12a4.82,4.82,0,0,0-.76,0,7.25,7.25,0,0,1-.93.05c.95-.8.95-1.72.64-2.89a2.62,2.62,0,0,1,0-.74c0-.71.08-1.41.08-2.11,0-.09-.29-.24-.44-.24a9,9,0,0,0-1.07.12l-.5-1.1c1.48.87,2.94.46,4.36.45.19,0,.38-.28.58-.44.25.23.25.23-.15.71l.42.91-.18.09c-.12-.16-.2-.42-.36-.46a4.44,4.44,0,0,0-1.35-.22,2.11,2.11,0,0,0-.17.9c0,.52.11,1.05.16,1.57a2.94,2.94,0,0,1,0,.51,9,9,0,0,0-.06,1.86C24.42,27.66,24.83,28,25.16,28.44Z"/><path class="cls-3" d="M26.74,18.84c.08-.09.22-.19.23-.29.05-.66.07-1.31.11-2,.58.13,1.16.24,1.57-.36.59.64.54,1.45-.15,1.73s-.38.5-.24.85a1.73,1.73,0,0,1-1.37,2.44A2.77,2.77,0,0,0,26.74,18.84Z"/><path class="cls-1" d="M30,18.27c1.1,0,1.3.27,1,1.36,0,.19.15.46.28.66A1.1,1.1,0,0,1,30.65,22c-.33-1.12-.51-1.27-2-1.68a6.07,6.07,0,0,1,.16-.85.87.87,0,0,1,.31-.35c.29-.24.6-.45.89-.67Z"/><path class="cls-1" d="M23.54,21.65a4.21,4.21,0,0,1,0-.71,5.64,5.64,0,0,0,.23-1.05c0-.53.24-.62.67-.6a2.74,2.74,0,0,0,.5-.07,9.13,9.13,0,0,1,1.28,0c.64.06.31.65.54,1l-.64,0c-.88,0-.89,0-1,.91-.05.33-.18.55-.56.53Z"/><path class="cls-1" d="M24.84,27.58a2.47,2.47,0,0,1-.11-2.09,1.32,1.32,0,0,0,0-.81,2.82,2.82,0,0,1,0-1.9l.17,0,.21.7c.19.61.39,1.21.57,1.83a1,1,0,0,1,0,.57C25.47,26.41,25.16,27,24.84,27.58Z"/><path class="cls-1" d="M21.61,25.54a4.06,4.06,0,0,0,.81-2.47c0-.1.16-.21.24-.31.07.1.2.21.19.31-.06.61-.16,1.22-.23,1.84a1,1,0,0,0,.08.47,2.36,2.36,0,0,1-.08,2.19Z"/><path class="cls-1" d="M22.32,29.64c.12-.31.15-.71.32-.77a4.72,4.72,0,0,1,1.4-.23,3.62,3.62,0,0,1,.9.25l.2.75A4.39,4.39,0,0,1,22.32,29.64Z"/><path class="cls-1" d="M24.27,32a18.71,18.71,0,0,1,2.07-.71,3.32,3.32,0,0,1,1.12.2A2.18,2.18,0,0,1,24.27,32Z"/><path class="cls-1" d="M20.28,31.65l-.17,0s0-.06-.07-.13c1.16-.47,2.13.43,3.21.37l0,.17-1,.32Z"/><path class="cls-3" d="M20.28,31.65l2,.69A1.91,1.91,0,0,1,20.28,31.65Z"/></g></g></svg>